<?xml version="1.0" encoding="UTF-8" standalone="no"?>
<!DOCTYPE svg PUBLIC "-//W3C//DTD SVG 1.1//EN" "http://www.w3.org/Graphics/SVG/1.1/DTD/svg11.dtd">
<svg width="100%" height="100%" viewBox="0 0 100 100" version="1.1" xmlns="http://www.w3.org/2000/svg" xmlns:xlink="http://www.w3.org/1999/xlink" xml:space="preserve" xmlns:serif="http://www.serif.com/" style="fill-rule:evenodd;clip-rule:evenodd;stroke-linejoin:round;stroke-miterlimit:2;">
    <g transform="matrix(0.707107,0.707107,-0.707107,0.707107,62.1304,-24.4319)">
        <g transform="matrix(6.47872,0,0,1.10434,-199.887,60.6698)">
            <path d="M41.699,19.698C41.699,17.199 41.353,15.17 40.927,15.17L33.209,15.17C32.784,15.17 32.438,17.199 32.438,19.698C32.438,22.196 32.784,24.225 33.209,24.225L40.927,24.225C41.353,24.225 41.699,22.196 41.699,19.698Z" style="fill:rgb(221,221,221);"/>
        </g>
        <g transform="matrix(3.96707e-16,-6.47872,1.10434,6.76214e-17,43.5148,297.578)">
            <path d="M41.699,19.698C41.699,17.199 41.353,15.17 40.927,15.17L33.209,15.17C32.784,15.17 32.438,17.199 32.438,19.698C32.438,22.196 32.784,24.225 33.209,24.225L40.927,24.225C41.353,24.225 41.699,22.196 41.699,19.698Z" style="fill:rgb(221,221,221);"/>
        </g>
        <g transform="matrix(-6.1082,-6.1082,0.780887,-0.780887,251.557,299.475)">
            <path d="M41.699,19.698C41.699,17.199 41.439,15.17 41.12,15.17L33.017,15.17C32.697,15.17 32.438,17.199 32.438,19.698C32.438,22.196 32.697,24.225 33.017,24.225L41.12,24.225C41.439,24.225 41.699,22.196 41.699,19.698Z" style="fill:rgb(221,221,221);"/>
        </g>
        <g transform="matrix(6.87172,-6.87172,0.780887,0.780887,-197.766,328.834)">
            <path d="M41.699,19.698C41.699,17.199 41.468,15.17 41.184,15.17L32.952,15.17C32.668,15.17 32.438,17.199 32.438,19.698C32.438,22.196 32.668,24.225 32.952,24.225L41.184,24.225C41.468,24.225 41.699,22.196 41.699,19.698Z" style="fill:rgb(221,221,221);"/>
        </g>
    </g>
</svg>
