<?xml version="1.0" encoding="UTF-8" standalone="no"?>
<!DOCTYPE svg PUBLIC "-//W3C//DTD SVG 1.1//EN" "http://www.w3.org/Graphics/SVG/1.1/DTD/svg11.dtd">
<svg width="100%" height="100%" viewBox="0 0 20 20" version="1.1" xmlns="http://www.w3.org/2000/svg" xmlns:xlink="http://www.w3.org/1999/xlink" xml:space="preserve" xmlns:serif="http://www.serif.com/" style="fill-rule:evenodd;clip-rule:evenodd;stroke-linejoin:round;stroke-miterlimit:2;">
    <g transform="matrix(0.956974,0,0,1.24831,-0.00129439,-3.36169)">
        <path d="M7.839,4.295C7.839,3.411 6.902,2.693 5.749,2.693L4.704,2.693C3.55,2.693 2.614,3.411 2.614,4.295L2.614,17.113C2.614,17.997 3.55,18.715 4.704,18.715L5.749,18.715C6.902,18.715 7.839,17.997 7.839,17.113L7.839,4.295Z" style="fill:rgb(221,221,221);"/>
    </g>
    <g transform="matrix(0.956974,0,0,1.24831,9.99871,-3.36169)">
        <path d="M7.839,4.295C7.839,3.411 6.902,2.693 5.749,2.693L4.704,2.693C3.55,2.693 2.614,3.411 2.614,4.295L2.614,17.113C2.614,17.997 3.55,18.715 4.704,18.715L5.749,18.715C6.902,18.715 7.839,17.997 7.839,17.113L7.839,4.295Z" style="fill:rgb(221,221,221);"/>
    </g>
</svg>
