<?xml version="1.0" encoding="UTF-8" standalone="no"?>
<!DOCTYPE svg PUBLIC "-//W3C//DTD SVG 1.1//EN" "http://www.w3.org/Graphics/SVG/1.1/DTD/svg11.dtd">
<svg width="100%" height="100%" viewBox="0 0 20 20" version="1.1" xmlns="http://www.w3.org/2000/svg" xmlns:xlink="http://www.w3.org/1999/xlink" xml:space="preserve" xmlns:serif="http://www.serif.com/" style="fill-rule:evenodd;clip-rule:evenodd;stroke-linejoin:round;stroke-miterlimit:2;">
    <g transform="matrix(6.12323e-17,1,-1,6.12323e-17,21.0048,-1.77636e-15)">
        <path d="M10,2.01C10.423,2.009 10.851,2.116 11.243,2.34L11.252,2.346C11.412,2.438 11.563,2.549 11.7,2.676C11.891,2.853 12.05,3.056 12.174,3.276L19.659,16.24C19.778,16.444 19.87,16.665 19.927,16.9L19.929,16.906C19.977,17.101 20,17.3 20,17.497L20,17.508C19.998,17.967 19.873,18.398 19.655,18.767C19.453,19.112 19.165,19.413 18.801,19.635C18.578,19.771 18.331,19.874 18.069,19.935L18.062,19.936C17.877,19.979 17.69,20 17.503,20L17.5,20L2.5,20L2.497,20C2.311,20 2.123,19.979 1.938,19.936L1.931,19.935C1.669,19.874 1.422,19.771 1.199,19.635C0.835,19.413 0.547,19.112 0.345,18.767C0.127,18.398 0.001,17.967 0,17.508L0,17.497C-0,17.3 0.023,17.101 0.071,16.906L0.073,16.9C0.13,16.665 0.222,16.444 0.341,16.24L7.826,3.276C7.95,3.056 8.109,2.853 8.3,2.676C8.437,2.549 8.588,2.438 8.748,2.346L8.757,2.34C9.149,2.116 9.578,2.009 10,2.01Z" style="fill:rgb(221,221,221);"/>
    </g>
</svg>
