<?xml version="1.0" encoding="UTF-8" standalone="no"?>
<!DOCTYPE svg PUBLIC "-//W3C//DTD SVG 1.1//EN" "http://www.w3.org/Graphics/SVG/1.1/DTD/svg11.dtd">
<svg width="100%" height="100%" viewBox="0 0 128 128" version="1.1" xmlns="http://www.w3.org/2000/svg" xmlns:xlink="http://www.w3.org/1999/xlink" xml:space="preserve" xmlns:serif="http://www.serif.com/" style="fill-rule:evenodd;clip-rule:evenodd;stroke-linejoin:round;stroke-miterlimit:2;">
    <path d="M104.356,23.644C103.543,22.83 102.224,22.83 101.41,23.644L97.875,27.178C97.062,27.992 97.062,29.311 97.875,30.125C106.549,38.798 111.917,50.777 111.917,64C111.917,77.223 106.549,89.202 97.875,97.875C97.062,98.689 97.062,100.008 97.875,100.822L101.41,104.356C102.224,105.17 103.543,105.17 104.356,104.356C114.689,94.024 121.083,79.753 121.083,64C121.083,48.247 114.689,33.976 104.356,23.644ZM26.59,23.644C25.776,22.83 24.457,22.83 23.644,23.644C13.311,33.976 6.917,48.247 6.917,64C6.917,79.753 13.311,94.024 23.644,104.356C24.457,105.17 25.776,105.17 26.59,104.356L30.125,100.822C30.938,100.008 30.938,98.689 30.125,97.875C21.451,89.202 16.083,77.223 16.083,64C16.083,50.777 21.451,38.798 30.125,30.125C30.938,29.311 30.938,27.992 30.125,27.178L26.59,23.644Z" style="fill:rgb(233,84,100);"/>
    <path d="M90.217,37.783C89.403,36.969 88.084,36.969 87.271,37.783L83.736,41.318C82.922,42.131 82.922,43.451 83.736,44.264C88.789,49.317 91.917,56.296 91.917,64C91.917,71.704 88.789,78.683 83.736,83.736C82.922,84.549 82.922,85.869 83.736,86.682L87.271,90.217C88.084,91.031 89.403,91.031 90.217,90.217C96.93,83.505 101.083,74.233 101.083,64C101.083,53.767 96.93,44.495 90.217,37.783ZM40.729,37.783C39.916,36.969 38.597,36.969 37.783,37.783C31.07,44.495 26.917,53.767 26.917,64C26.917,74.233 31.07,83.505 37.783,90.217C38.597,91.031 39.916,91.031 40.729,90.217L44.264,86.682C45.078,85.869 45.078,84.549 44.264,83.736C39.211,78.683 36.083,71.704 36.083,64C36.083,56.296 39.211,49.317 44.264,44.264C45.078,43.451 45.078,42.131 44.264,41.318L40.729,37.783Z" style="fill:rgb(233,84,100);"/>
    <circle cx="64" cy="64" r="17.083" style="fill:rgb(233,84,100);"/>
</svg>
