<?xml version="1.0" encoding="UTF-8" standalone="no"?>
<!DOCTYPE svg PUBLIC "-//W3C//DTD SVG 1.1//EN" "http://www.w3.org/Graphics/SVG/1.1/DTD/svg11.dtd">
<svg width="100%" height="100%" viewBox="0 0 20 20" version="1.1" xmlns="http://www.w3.org/2000/svg" xmlns:xlink="http://www.w3.org/1999/xlink" xml:space="preserve" xmlns:serif="http://www.serif.com/" style="fill-rule:evenodd;clip-rule:evenodd;stroke-linejoin:round;stroke-miterlimit:2;">
    <g transform="matrix(16.6667,0,0,16.6667,1.68359,16.5365)">
        <path d="M0.698,-0.04C0.696,-0.124 0.695,-0.268 0.695,-0.408C0.695,-0.517 0.696,-0.624 0.698,-0.697L0.698,-0.699C0.698,-0.733 0.669,-0.751 0.64,-0.751C0.608,-0.751 0.581,-0.73 0.582,-0.697C0.583,-0.657 0.584,-0.617 0.584,-0.581C0.584,-0.526 0.583,-0.481 0.582,-0.457C0.582,-0.446 0.578,-0.439 0.566,-0.439C0.53,-0.438 0.455,-0.438 0.382,-0.438C0.31,-0.438 0.241,-0.438 0.216,-0.439C0.208,-0.439 0.2,-0.443 0.2,-0.458C0.199,-0.483 0.198,-0.528 0.198,-0.582C0.198,-0.617 0.199,-0.657 0.2,-0.697L0.2,-0.699C0.2,-0.733 0.171,-0.751 0.142,-0.751C0.107,-0.751 0.084,-0.729 0.085,-0.697C0.087,-0.621 0.088,-0.515 0.088,-0.403C0.088,-0.278 0.087,-0.146 0.085,-0.04L0.085,-0.039C0.085,-0.007 0.114,0.009 0.143,0.009C0.172,0.009 0.2,-0.006 0.2,-0.038L0.2,-0.04C0.198,-0.086 0.198,-0.131 0.198,-0.171C0.198,-0.237 0.199,-0.29 0.2,-0.316C0.2,-0.331 0.211,-0.332 0.219,-0.332C0.258,-0.333 0.335,-0.334 0.409,-0.334C0.469,-0.334 0.528,-0.333 0.563,-0.332C0.578,-0.331 0.582,-0.329 0.582,-0.313C0.583,-0.286 0.584,-0.234 0.584,-0.171C0.584,-0.13 0.583,-0.085 0.582,-0.04L0.582,-0.038C0.582,-0.006 0.611,0.009 0.64,0.01C0.669,0.01 0.698,-0.007 0.698,-0.039L0.698,-0.04Z" style="fill:rgb(221,221,221);fill-rule:nonzero;"/>
    </g>
    <g transform="matrix(16.6667,0,0,16.6667,16.1667,13.9083)">
        <path d="M0.16,-0.316C0.201,-0.316 0.23,-0.351 0.23,-0.387C0.23,-0.426 0.193,-0.454 0.16,-0.454C0.132,-0.454 0.09,-0.435 0.09,-0.386C0.09,-0.328 0.133,-0.316 0.16,-0.316ZM0.16,-0.015C0.201,-0.015 0.23,-0.05 0.23,-0.086C0.23,-0.125 0.193,-0.153 0.16,-0.153C0.132,-0.153 0.09,-0.134 0.09,-0.085C0.09,-0.027 0.133,-0.015 0.16,-0.015Z" style="fill:rgb(221,221,221);fill-rule:nonzero;"/>
    </g>
</svg>
