<?xml version="1.0" encoding="UTF-8" standalone="no"?>
<!DOCTYPE svg PUBLIC "-//W3C//DTD SVG 1.1//EN" "http://www.w3.org/Graphics/SVG/1.1/DTD/svg11.dtd">
<svg width="100%" height="100%" viewBox="0 0 100 40" version="1.1" xmlns="http://www.w3.org/2000/svg" xmlns:xlink="http://www.w3.org/1999/xlink" xml:space="preserve" xmlns:serif="http://www.serif.com/" style="fill-rule:evenodd;clip-rule:evenodd;stroke-linejoin:round;stroke-miterlimit:2;">
    <path d="M69.145,20L83,20C86.863,20 90,16.863 90,13L90,4.968C90.017,2.223 92.251,0 95,0C97.76,0 100,2.24 100,5L100,0L100,15C100,23.279 93.279,30 85,30L69.145,30C67.084,35.823 61.526,40 55,40L45,40C38.474,40 32.916,35.823 30.855,30L15,30C6.721,30 0,23.279 0,15L0,0L0,5C0,2.24 2.24,0 5,0C7.749,0 9.983,2.223 10,4.968L10,13C10,16.863 13.137,20 17,20L30.855,20C32.916,14.177 38.474,10 45,10L55,10C61.526,10 67.084,14.177 69.145,20ZM60,25C60,22.24 57.76,20 55,20L45,20C42.24,20 40,22.24 40,25C40,27.76 42.24,30 45,30L55,30C57.76,30 60,27.76 60,25Z" style="fill:rgb(221,221,221);"/>
</svg>
