<?xml version="1.0" encoding="UTF-8" standalone="no"?>
<!DOCTYPE svg PUBLIC "-//W3C//DTD SVG 1.1//EN" "http://www.w3.org/Graphics/SVG/1.1/DTD/svg11.dtd">
<svg width="100%" height="100%" viewBox="0 0 100 40" version="1.1" xmlns="http://www.w3.org/2000/svg" xmlns:xlink="http://www.w3.org/1999/xlink" xml:space="preserve" xmlns:serif="http://www.serif.com/" style="fill-rule:evenodd;clip-rule:evenodd;stroke-linejoin:round;stroke-miterlimit:2;">
    <path d="M15,30C6.721,30 0,23.279 0,15L0,0L0,5C0,2.24 2.24,0 5,0C7.749,0 9.983,2.223 10,4.968L10,5L10,13C10,16.863 13.137,20 17,20L35,20L35.032,20C37.777,20.017 40,22.251 40,25C40,27.76 37.76,30 35,30L15,30ZM100,5L100,0L100,15C100,23.279 93.279,30 85,30L65,30C62.24,30 60,27.76 60,25C60,22.24 62.24,20 65,20L83,20C86.863,20 90,16.863 90,13L90,5L90,4.968C90.017,2.223 92.251,0 95,0C97.76,0 100,2.24 100,5Z" style="fill:rgb(221,221,221);"/>
</svg>
