<?xml version="1.0" encoding="UTF-8" standalone="no"?>
<!DOCTYPE svg PUBLIC "-//W3C//DTD SVG 1.1//EN" "http://www.w3.org/Graphics/SVG/1.1/DTD/svg11.dtd">
<svg width="100%" height="100%" viewBox="0 0 20 20" version="1.1" xmlns="http://www.w3.org/2000/svg" xmlns:xlink="http://www.w3.org/1999/xlink" xml:space="preserve" xmlns:serif="http://www.serif.com/" style="fill-rule:evenodd;clip-rule:evenodd;stroke-linejoin:round;stroke-miterlimit:2;">
    <g transform="matrix(16.6667,0,0,16.6667,0.25,16.5365)">
        <path d="M0.791,-0.093C0.875,-0.441 0.928,-0.679 0.928,-0.698C0.928,-0.73 0.896,-0.75 0.865,-0.75C0.84,-0.75 0.815,-0.736 0.809,-0.707C0.696,-0.133 0.69,-0.133 0.676,-0.133C0.671,-0.133 0.666,-0.139 0.663,-0.156C0.642,-0.272 0.592,-0.56 0.57,-0.674C0.561,-0.721 0.517,-0.748 0.473,-0.748C0.432,-0.748 0.391,-0.724 0.381,-0.67C0.355,-0.537 0.301,-0.234 0.282,-0.151C0.279,-0.136 0.272,-0.125 0.264,-0.125C0.25,-0.125 0.248,-0.131 0.148,-0.706C0.143,-0.735 0.116,-0.75 0.088,-0.75C0.058,-0.75 0.027,-0.732 0.027,-0.697C0.027,-0.679 0.041,-0.603 0.148,-0.097C0.163,-0.026 0.21,0.009 0.259,0.009C0.307,0.009 0.356,-0.026 0.374,-0.098C0.406,-0.221 0.454,-0.505 0.467,-0.596C0.469,-0.607 0.472,-0.614 0.475,-0.614C0.478,-0.614 0.481,-0.609 0.483,-0.596C0.494,-0.512 0.546,-0.203 0.572,-0.097C0.59,-0.024 0.635,0.009 0.68,0.009C0.727,0.009 0.775,-0.027 0.791,-0.093Z" style="fill:rgb(221,221,221);fill-rule:nonzero;"/>
    </g>
    <g transform="matrix(16.6667,0,0,16.6667,16.1667,13.9083)">
        <path d="M0.16,-0.316C0.201,-0.316 0.23,-0.351 0.23,-0.387C0.23,-0.426 0.193,-0.454 0.16,-0.454C0.132,-0.454 0.09,-0.435 0.09,-0.386C0.09,-0.328 0.133,-0.316 0.16,-0.316ZM0.16,-0.015C0.201,-0.015 0.23,-0.05 0.23,-0.086C0.23,-0.125 0.193,-0.153 0.16,-0.153C0.132,-0.153 0.09,-0.134 0.09,-0.085C0.09,-0.027 0.133,-0.015 0.16,-0.015Z" style="fill:rgb(221,221,221);fill-rule:nonzero;"/>
    </g>
</svg>
