<?xml version="1.0" encoding="UTF-8" standalone="no"?>
<!DOCTYPE svg PUBLIC "-//W3C//DTD SVG 1.1//EN" "http://www.w3.org/Graphics/SVG/1.1/DTD/svg11.dtd">
<svg width="100%" height="100%" viewBox="0 0 20 20" version="1.1" xmlns="http://www.w3.org/2000/svg" xmlns:xlink="http://www.w3.org/1999/xlink" xml:space="preserve" xmlns:serif="http://www.serif.com/" style="fill-rule:evenodd;clip-rule:evenodd;stroke-linejoin:round;stroke-miterlimit:2;">
    <g transform="matrix(16.6667,0,0,16.6667,2.1,16.5365)">
        <path d="M0.29,-0.406C0.292,-0.405 0.292,-0.402 0.292,-0.4C0.292,-0.398 0.292,-0.396 0.29,-0.394C0.201,-0.283 0.1,-0.166 0.037,-0.089C0.028,-0.078 0.024,-0.066 0.024,-0.054C0.024,-0.021 0.056,0.009 0.089,0.009C0.104,0.009 0.119,0.002 0.131,-0.013C0.358,-0.305 0.363,-0.31 0.366,-0.31C0.371,-0.31 0.547,-0.086 0.602,-0.014C0.614,0.002 0.629,0.008 0.644,0.008C0.676,0.008 0.709,-0.022 0.709,-0.056C0.709,-0.068 0.705,-0.08 0.696,-0.091C0.63,-0.171 0.531,-0.285 0.442,-0.395C0.441,-0.397 0.441,-0.398 0.441,-0.4C0.441,-0.41 0.638,-0.645 0.647,-0.655C0.656,-0.665 0.66,-0.677 0.66,-0.688C0.66,-0.72 0.626,-0.751 0.594,-0.751C0.579,-0.751 0.564,-0.744 0.553,-0.729C0.5,-0.657 0.372,-0.49 0.366,-0.49C0.361,-0.49 0.232,-0.656 0.176,-0.731C0.165,-0.746 0.151,-0.752 0.136,-0.752C0.104,-0.752 0.071,-0.722 0.071,-0.689C0.071,-0.678 0.075,-0.667 0.084,-0.656C0.139,-0.592 0.211,-0.505 0.29,-0.406Z" style="fill:rgb(221,221,221);fill-rule:nonzero;"/>
    </g>
    <g transform="matrix(16.6667,0,0,16.6667,16.1667,13.9083)">
        <path d="M0.16,-0.316C0.201,-0.316 0.23,-0.351 0.23,-0.387C0.23,-0.426 0.193,-0.454 0.16,-0.454C0.132,-0.454 0.09,-0.435 0.09,-0.386C0.09,-0.328 0.133,-0.316 0.16,-0.316ZM0.16,-0.015C0.201,-0.015 0.23,-0.05 0.23,-0.086C0.23,-0.125 0.193,-0.153 0.16,-0.153C0.132,-0.153 0.09,-0.134 0.09,-0.085C0.09,-0.027 0.133,-0.015 0.16,-0.015Z" style="fill:rgb(221,221,221);fill-rule:nonzero;"/>
    </g>
</svg>
