<?xml version="1.0" encoding="UTF-8" standalone="no"?>
<!DOCTYPE svg PUBLIC "-//W3C//DTD SVG 1.1//EN" "http://www.w3.org/Graphics/SVG/1.1/DTD/svg11.dtd">
<svg width="100%" height="100%" viewBox="0 0 20 20" version="1.1" xmlns="http://www.w3.org/2000/svg" xmlns:xlink="http://www.w3.org/1999/xlink" xml:space="preserve" xmlns:serif="http://www.serif.com/" style="fill-rule:evenodd;clip-rule:evenodd;stroke-linejoin:round;stroke-miterlimit:2;">
    <g transform="matrix(16.6667,0,0,16.6667,2.64167,16.5365)">
        <path d="M0.273,-0.05C0.273,-0.01 0.304,0.009 0.336,0.009C0.366,0.009 0.397,-0.01 0.397,-0.047C0.397,-0.128 0.396,-0.229 0.396,-0.289C0.396,-0.308 0.397,-0.312 0.408,-0.328C0.473,-0.419 0.585,-0.586 0.63,-0.658C0.636,-0.668 0.639,-0.677 0.639,-0.687C0.639,-0.72 0.604,-0.749 0.572,-0.749C0.554,-0.749 0.538,-0.741 0.527,-0.721C0.487,-0.646 0.408,-0.523 0.346,-0.438C0.343,-0.433 0.339,-0.431 0.334,-0.431C0.33,-0.431 0.326,-0.433 0.322,-0.439C0.252,-0.543 0.182,-0.647 0.14,-0.72C0.128,-0.741 0.11,-0.75 0.092,-0.75C0.061,-0.75 0.029,-0.723 0.029,-0.689C0.029,-0.678 0.033,-0.666 0.041,-0.654C0.089,-0.582 0.19,-0.433 0.263,-0.323C0.273,-0.308 0.273,-0.308 0.273,-0.29L0.273,-0.05Z" style="fill:rgb(221,221,221);fill-rule:nonzero;"/>
    </g>
    <g transform="matrix(16.6667,0,0,16.6667,16.1667,13.9083)">
        <path d="M0.16,-0.316C0.201,-0.316 0.23,-0.351 0.23,-0.387C0.23,-0.426 0.193,-0.454 0.16,-0.454C0.132,-0.454 0.09,-0.435 0.09,-0.386C0.09,-0.328 0.133,-0.316 0.16,-0.316ZM0.16,-0.015C0.201,-0.015 0.23,-0.05 0.23,-0.086C0.23,-0.125 0.193,-0.153 0.16,-0.153C0.132,-0.153 0.09,-0.134 0.09,-0.085C0.09,-0.027 0.133,-0.015 0.16,-0.015Z" style="fill:rgb(221,221,221);fill-rule:nonzero;"/>
    </g>
</svg>
