<?xml version="1.0" encoding="UTF-8" standalone="no"?>
<!DOCTYPE svg PUBLIC "-//W3C//DTD SVG 1.1//EN" "http://www.w3.org/Graphics/SVG/1.1/DTD/svg11.dtd">
<svg width="100%" height="100%" viewBox="0 0 100 100" version="1.1" xmlns="http://www.w3.org/2000/svg" xmlns:xlink="http://www.w3.org/1999/xlink" xml:space="preserve" xmlns:serif="http://www.serif.com/" style="fill-rule:evenodd;clip-rule:evenodd;stroke-linejoin:round;stroke-miterlimit:2;">
    <g transform="matrix(0.381471,0,0,0.978229,31.1384,-61.4684)">
        <path d="M85.602,82.048C85.602,74.266 69.4,67.948 49.444,67.948C29.488,67.948 13.287,74.266 13.287,82.048L13.287,117.298C13.287,125.08 29.488,131.398 49.444,131.398C69.4,131.398 85.602,125.08 85.602,117.298L85.602,82.048Z" style="fill:rgb(53,53,53);"/>
    </g>
    <g transform="matrix(1.37931,0,0,1.37931,-20.7613,-16.8043)">
        <path d="M53.052,77.558L64.552,77.558C65.518,77.558 66.302,78.342 66.302,79.308C66.302,80.274 65.518,81.058 64.552,81.058L38.052,81.058C37.086,81.058 36.302,80.274 36.302,79.308C36.302,78.342 37.086,77.558 38.052,77.558L49.552,77.558L49.552,67.719C40.99,66.841 34.302,59.6 34.302,50.808L34.302,25.808L34.302,48.808C34.302,47.842 35.086,47.058 36.052,47.058C37.018,47.058 37.802,47.842 37.802,48.808L37.802,50.808C37.802,58.259 43.851,64.308 51.302,64.308C58.753,64.308 64.802,58.259 64.802,50.808L64.802,48.808C64.802,47.842 65.586,47.058 66.552,47.058C67.518,47.058 68.302,47.842 68.302,48.808L68.302,50.808C68.302,59.6 61.614,66.841 53.052,67.719L53.052,77.558Z" style="fill:rgb(53,53,53);"/>
    </g>
</svg>
