<?xml version="1.0" encoding="UTF-8" standalone="no"?>
<!DOCTYPE svg PUBLIC "-//W3C//DTD SVG 1.1//EN" "http://www.w3.org/Graphics/SVG/1.1/DTD/svg11.dtd">
<svg width="100%" height="100%" viewBox="0 0 100 100" version="1.1" xmlns="http://www.w3.org/2000/svg" xmlns:xlink="http://www.w3.org/1999/xlink" xml:space="preserve" xmlns:serif="http://www.serif.com/" style="fill-rule:evenodd;clip-rule:evenodd;stroke-linejoin:round;stroke-miterlimit:2;">
    <path d="M32.119,63.975L29.376,64.367C28.078,64.552 26.768,64.115 25.841,63.188C24.913,62.261 24.477,60.951 24.662,59.653C24.662,59.653 26.2,48.887 26.2,48.887L17.5,42.362C16.451,41.575 15.833,40.34 15.833,39.029C15.833,37.717 16.451,36.482 17.5,35.695C17.5,35.695 26.2,29.17 26.2,29.17L24.662,18.405C24.477,17.106 24.913,15.796 25.841,14.869C26.768,13.942 28.078,13.505 29.376,13.691C29.376,13.691 40.142,15.229 40.142,15.229L46.667,6.529C47.454,5.479 48.689,4.862 50,4.862C51.311,4.862 52.546,5.479 53.333,6.529L59.858,15.229L70.624,13.691C71.922,13.505 73.232,13.942 74.159,14.869C75.087,15.796 75.523,17.106 75.338,18.405C75.338,18.405 73.8,29.17 73.8,29.17L82.5,35.695C83.549,36.482 84.167,37.717 84.167,39.029C84.167,40.34 83.549,41.575 82.5,42.362C82.5,42.362 73.8,48.887 73.8,48.887L75.338,59.653C75.523,60.951 75.087,62.261 74.159,63.188C73.232,64.115 71.922,64.552 70.624,64.367L67.881,63.975L67.881,90.971C67.881,92.473 67.073,93.858 65.767,94.597C64.461,95.337 62.858,95.317 61.571,94.544C61.571,94.544 50,87.602 50,87.602L38.429,94.544C37.142,95.317 35.539,95.337 34.233,94.597C32.927,93.858 32.119,92.473 32.119,90.971L32.119,63.975ZM40.452,63.243L40.452,83.612L47.856,79.17C49.176,78.378 50.824,78.378 52.144,79.17L59.548,83.612L59.548,63.243L53.333,71.529C52.546,72.578 51.311,73.195 50,73.195C48.689,73.195 47.454,72.578 46.667,71.529L40.452,63.243ZM54.672,22.202C55.585,23.419 57.088,24.042 58.594,23.827L66.303,22.726C66.303,22.726 65.202,30.434 65.202,30.434C64.986,31.94 65.609,33.444 66.826,34.357L73.056,39.029C73.056,39.029 66.826,43.7 66.826,43.7C65.609,44.613 64.986,46.117 65.202,47.623L66.303,55.331C66.303,55.331 58.594,54.23 58.594,54.23C57.088,54.015 55.585,54.638 54.672,55.855L50,62.084C50,62.084 45.328,55.855 45.328,55.855C44.415,54.638 42.912,54.015 41.406,54.23L33.697,55.331C33.697,55.331 34.798,47.623 34.798,47.623C35.014,46.117 34.391,44.613 33.174,43.7L26.944,39.029C26.944,39.029 33.174,34.357 33.174,34.357C34.391,33.444 35.014,31.94 34.798,30.434L33.697,22.726C33.697,22.726 41.406,23.827 41.406,23.827C42.912,24.042 44.415,23.419 45.328,22.202L50,15.973C50,15.973 54.672,22.202 54.672,22.202Z" style="fill:rgb(53,53,53);"/>
    <g transform="matrix(0.947882,0,0,0.947882,3.34153,1.742)">
        <path d="M49.224,25.798C41.752,25.798 35.685,31.864 35.685,39.337C35.685,46.809 41.752,52.876 49.224,52.876C56.696,52.876 62.763,46.809 62.763,39.337C62.763,31.864 56.696,25.798 49.224,25.798ZM49.224,34.589C51.844,34.589 53.971,36.717 53.971,39.337C53.971,41.957 51.844,44.084 49.224,44.084C46.604,44.084 44.476,41.957 44.476,39.337C44.476,36.717 46.604,34.589 49.224,34.589Z" style="fill:rgb(53,53,53);"/>
    </g>
</svg>
