<?xml version="1.0" encoding="UTF-8" standalone="no"?>
<!DOCTYPE svg PUBLIC "-//W3C//DTD SVG 1.1//EN" "http://www.w3.org/Graphics/SVG/1.1/DTD/svg11.dtd">
<svg width="100%" height="100%" viewBox="0 0 100 100" version="1.1" xmlns="http://www.w3.org/2000/svg" xmlns:xlink="http://www.w3.org/1999/xlink" xml:space="preserve" xmlns:serif="http://www.serif.com/" style="fill-rule:evenodd;clip-rule:evenodd;stroke-linejoin:round;stroke-miterlimit:2;">
    <path d="M45,45L45,5C45,2.24 47.24,0 50,0C52.76,0 55,2.24 55,5L55,45L95,45C97.76,45 100,47.24 100,50C100,52.76 97.76,55 95,55L55,55L55,95C55,97.76 52.76,100 50,100C47.24,100 45,97.76 45,95L45,55L5,55C2.24,55 0,52.76 0,50C0,47.24 2.24,45 5,45L45,45Z" style="fill:rgb(221,221,221);"/>
</svg>
