<?xml version="1.0" encoding="UTF-8" standalone="no"?>
<!DOCTYPE svg PUBLIC "-//W3C//DTD SVG 1.1//EN" "http://www.w3.org/Graphics/SVG/1.1/DTD/svg11.dtd">
<svg width="100%" height="100%" viewBox="0 0 100 20" version="1.1" xmlns="http://www.w3.org/2000/svg" xmlns:xlink="http://www.w3.org/1999/xlink" xml:space="preserve" xmlns:serif="http://www.serif.com/" style="fill-rule:evenodd;clip-rule:evenodd;stroke-linejoin:round;stroke-miterlimit:2;">
    <g transform="matrix(1,0,0,1,9.8551,4.45423)">
        <g transform="matrix(10.4167,0,0,10.4167,15.1657,9.40514)">
            <path d="M0.202,-0.047L0.202,-0.086C0.202,-0.152 0.199,-0.223 0.199,-0.285C0.199,-0.293 0.2,-0.296 0.205,-0.296C0.207,-0.296 0.209,-0.296 0.212,-0.295C0.238,-0.289 0.262,-0.287 0.285,-0.287C0.31,-0.287 0.333,-0.289 0.357,-0.292C0.497,-0.306 0.574,-0.419 0.574,-0.53C0.574,-0.638 0.501,-0.745 0.343,-0.755C0.328,-0.756 0.308,-0.757 0.287,-0.757C0.091,-0.757 0.09,-0.691 0.09,-0.568C0.09,-0.498 0.092,-0.4 0.092,-0.297C0.092,-0.212 0.091,-0.124 0.087,-0.046L0.087,-0.043C0.087,-0.01 0.116,0.008 0.144,0.008C0.173,0.008 0.201,-0.009 0.202,-0.047ZM0.333,-0.651C0.423,-0.651 0.462,-0.595 0.462,-0.535C0.462,-0.471 0.416,-0.402 0.34,-0.395C0.319,-0.393 0.298,-0.392 0.279,-0.392C0.217,-0.392 0.197,-0.399 0.197,-0.42L0.197,-0.437C0.197,-0.472 0.196,-0.513 0.196,-0.548C0.196,-0.641 0.205,-0.652 0.285,-0.652C0.309,-0.652 0.333,-0.651 0.333,-0.651Z" style="fill:rgb(221,221,221);fill-rule:nonzero;"/>
        </g>
        <g transform="matrix(10.4167,0,0,10.4167,21.6136,9.40514)">
            <path d="M0.136,0.011C0.176,0.011 0.188,-0.019 0.187,-0.04C0.185,-0.111 0.184,-0.161 0.184,-0.2C0.184,-0.227 0.184,-0.248 0.185,-0.266C0.188,-0.329 0.254,-0.378 0.313,-0.384C0.352,-0.388 0.37,-0.414 0.37,-0.439C0.37,-0.464 0.352,-0.487 0.321,-0.487C0.287,-0.487 0.233,-0.47 0.193,-0.426C0.191,-0.423 0.189,-0.422 0.189,-0.422C0.188,-0.422 0.188,-0.423 0.188,-0.425L0.188,-0.429C0.188,-0.432 0.189,-0.435 0.189,-0.439C0.189,-0.471 0.163,-0.486 0.138,-0.486C0.113,-0.486 0.084,-0.471 0.084,-0.441L0.084,-0.439C0.086,-0.372 0.087,-0.32 0.087,-0.26C0.087,-0.201 0.086,-0.135 0.083,-0.04L0.083,-0.038C0.083,-0.006 0.109,0.011 0.136,0.011Z" style="fill:rgb(221,221,221);fill-rule:nonzero;"/>
        </g>
        <g transform="matrix(10.4167,0,0,10.4167,25.6449,9.40514)">
            <path d="M0.296,0.015C0.439,0.015 0.547,-0.087 0.547,-0.238C0.547,-0.384 0.439,-0.491 0.296,-0.491C0.153,-0.491 0.044,-0.384 0.044,-0.238C0.044,-0.087 0.153,0.015 0.296,0.015ZM0.296,-0.079C0.213,-0.079 0.145,-0.14 0.145,-0.238C0.145,-0.337 0.214,-0.399 0.296,-0.399C0.378,-0.399 0.446,-0.337 0.446,-0.238C0.446,-0.14 0.379,-0.079 0.296,-0.079Z" style="fill:rgb(221,221,221);fill-rule:nonzero;"/>
        </g>
        <g transform="matrix(10.4167,0,0,10.4167,31.8011,9.40514)">
            <path d="M0.183,-0.439C0.179,-0.469 0.156,-0.485 0.133,-0.485C0.107,-0.485 0.081,-0.466 0.081,-0.429C0.081,-0.334 0.083,-0.146 0.083,0.005C0.083,0.093 0.083,0.168 0.08,0.204L0.08,0.209C0.08,0.243 0.106,0.261 0.133,0.261C0.164,0.261 0.185,0.24 0.184,0.209C0.183,0.168 0.181,0.073 0.181,-0.037C0.181,-0.041 0.182,-0.043 0.184,-0.043C0.185,-0.043 0.187,-0.041 0.189,-0.04C0.226,-0.008 0.273,0.013 0.328,0.013C0.466,0.013 0.57,-0.092 0.57,-0.238C0.57,-0.389 0.466,-0.489 0.328,-0.489C0.273,-0.489 0.226,-0.469 0.189,-0.437C0.188,-0.436 0.187,-0.436 0.186,-0.436C0.185,-0.436 0.184,-0.437 0.183,-0.439ZM0.326,-0.078C0.246,-0.078 0.182,-0.139 0.182,-0.238C0.182,-0.336 0.246,-0.396 0.326,-0.396C0.406,-0.396 0.47,-0.336 0.47,-0.238C0.47,-0.139 0.406,-0.078 0.326,-0.078Z" style="fill:rgb(221,221,221);fill-rule:nonzero;"/>
        </g>
        <g transform="matrix(10.4167,0,0,10.4167,38.2074,9.40514)">
            <path d="M0.487,-0.066C0.498,-0.077 0.502,-0.089 0.502,-0.101C0.502,-0.129 0.476,-0.153 0.449,-0.153C0.437,-0.153 0.425,-0.148 0.415,-0.137C0.386,-0.106 0.348,-0.076 0.285,-0.076C0.214,-0.076 0.15,-0.126 0.149,-0.209C0.149,-0.22 0.151,-0.228 0.157,-0.228C0.351,-0.228 0.372,-0.228 0.403,-0.229C0.467,-0.231 0.498,-0.269 0.498,-0.316C0.498,-0.392 0.42,-0.493 0.282,-0.493C0.153,-0.493 0.045,-0.388 0.045,-0.235C0.045,-0.086 0.147,0.017 0.284,0.017C0.385,0.017 0.439,-0.016 0.487,-0.066ZM0.374,-0.311C0.347,-0.31 0.302,-0.31 0.261,-0.31C0.168,-0.31 0.158,-0.31 0.158,-0.319C0.158,-0.336 0.202,-0.406 0.283,-0.406C0.373,-0.406 0.394,-0.347 0.394,-0.333C0.394,-0.321 0.386,-0.312 0.374,-0.311Z" style="fill:rgb(221,221,221);fill-rule:nonzero;"/>
        </g>
        <g transform="matrix(10.4167,0,0,10.4167,43.8428,9.40514)">
            <path d="M0.136,0.011C0.176,0.011 0.188,-0.019 0.187,-0.04C0.185,-0.111 0.184,-0.161 0.184,-0.2C0.184,-0.227 0.184,-0.248 0.185,-0.266C0.188,-0.329 0.254,-0.378 0.313,-0.384C0.352,-0.388 0.37,-0.414 0.37,-0.439C0.37,-0.464 0.352,-0.487 0.321,-0.487C0.287,-0.487 0.233,-0.47 0.193,-0.426C0.191,-0.423 0.189,-0.422 0.189,-0.422C0.188,-0.422 0.188,-0.423 0.188,-0.425L0.188,-0.429C0.188,-0.432 0.189,-0.435 0.189,-0.439C0.189,-0.471 0.163,-0.486 0.138,-0.486C0.113,-0.486 0.084,-0.471 0.084,-0.441L0.084,-0.439C0.086,-0.372 0.087,-0.32 0.087,-0.26C0.087,-0.201 0.086,-0.135 0.083,-0.04L0.083,-0.038C0.083,-0.006 0.109,0.011 0.136,0.011Z" style="fill:rgb(221,221,221);fill-rule:nonzero;"/>
        </g>
        <g transform="matrix(10.4167,0,0,10.4167,47.8741,9.40514)">
            <path d="M0.294,-0.388C0.324,-0.388 0.338,-0.412 0.338,-0.435C0.338,-0.459 0.324,-0.482 0.294,-0.482L0.227,-0.482C0.217,-0.482 0.213,-0.483 0.213,-0.499C0.213,-0.499 0.215,-0.537 0.215,-0.564C0.215,-0.577 0.215,-0.625 0.162,-0.625C0.136,-0.625 0.112,-0.61 0.112,-0.58L0.112,-0.577C0.113,-0.566 0.113,-0.554 0.113,-0.542C0.113,-0.519 0.112,-0.499 0.112,-0.499C0.112,-0.485 0.111,-0.482 0.095,-0.482L0.066,-0.482C0.036,-0.482 0.021,-0.459 0.021,-0.436C0.021,-0.412 0.037,-0.388 0.066,-0.388L0.096,-0.388C0.106,-0.388 0.112,-0.387 0.112,-0.374L0.112,-0.359C0.112,-0.315 0.11,-0.215 0.11,-0.157C0.11,-0.116 0.11,0.015 0.258,0.015C0.31,0.015 0.343,-0.002 0.343,-0.038C0.343,-0.06 0.327,-0.082 0.3,-0.082C0.297,-0.082 0.295,-0.081 0.292,-0.081C0.284,-0.08 0.276,-0.079 0.269,-0.079C0.213,-0.079 0.21,-0.111 0.21,-0.189C0.21,-0.255 0.213,-0.34 0.213,-0.377C0.213,-0.383 0.213,-0.388 0.228,-0.388L0.294,-0.388Z" style="fill:rgb(221,221,221);fill-rule:nonzero;"/>
        </g>
        <g transform="matrix(10.4167,0,0,10.4167,51.7282,9.40514)">
            <path d="M0.14,-0.615C0.183,-0.615 0.21,-0.65 0.21,-0.686C0.21,-0.724 0.176,-0.754 0.14,-0.754C0.112,-0.754 0.07,-0.735 0.07,-0.686C0.07,-0.64 0.101,-0.615 0.14,-0.615ZM0.194,-0.037L0.194,-0.039C0.193,-0.094 0.192,-0.165 0.192,-0.234C0.192,-0.318 0.193,-0.397 0.194,-0.438L0.194,-0.44C0.194,-0.472 0.167,-0.488 0.141,-0.488C0.111,-0.488 0.086,-0.47 0.087,-0.437C0.088,-0.41 0.088,-0.37 0.088,-0.325C0.088,-0.234 0.087,-0.12 0.087,-0.037C0.087,-0.003 0.113,0.014 0.14,0.014C0.167,0.014 0.194,-0.003 0.194,-0.037Z" style="fill:rgb(221,221,221);fill-rule:nonzero;"/>
        </g>
        <g transform="matrix(10.4167,0,0,10.4167,54.6449,9.40514)">
            <path d="M0.487,-0.066C0.498,-0.077 0.502,-0.089 0.502,-0.101C0.502,-0.129 0.476,-0.153 0.449,-0.153C0.437,-0.153 0.425,-0.148 0.415,-0.137C0.386,-0.106 0.348,-0.076 0.285,-0.076C0.214,-0.076 0.15,-0.126 0.149,-0.209C0.149,-0.22 0.151,-0.228 0.157,-0.228C0.351,-0.228 0.372,-0.228 0.403,-0.229C0.467,-0.231 0.498,-0.269 0.498,-0.316C0.498,-0.392 0.42,-0.493 0.282,-0.493C0.153,-0.493 0.045,-0.388 0.045,-0.235C0.045,-0.086 0.147,0.017 0.284,0.017C0.385,0.017 0.439,-0.016 0.487,-0.066ZM0.374,-0.311C0.347,-0.31 0.302,-0.31 0.261,-0.31C0.168,-0.31 0.158,-0.31 0.158,-0.319C0.158,-0.336 0.202,-0.406 0.283,-0.406C0.373,-0.406 0.394,-0.347 0.394,-0.333C0.394,-0.321 0.386,-0.312 0.374,-0.311Z" style="fill:rgb(221,221,221);fill-rule:nonzero;"/>
        </g>
        <g transform="matrix(10.4167,0,0,10.4167,60.2803,9.40514)">
            <path d="M0.378,-0.131C0.378,-0.18 0.349,-0.231 0.28,-0.268C0.25,-0.284 0.205,-0.304 0.179,-0.317C0.156,-0.328 0.146,-0.346 0.146,-0.361C0.146,-0.383 0.165,-0.402 0.199,-0.402C0.234,-0.402 0.252,-0.388 0.262,-0.378C0.275,-0.364 0.29,-0.358 0.303,-0.358C0.33,-0.358 0.353,-0.381 0.353,-0.408C0.353,-0.447 0.291,-0.492 0.199,-0.492C0.103,-0.492 0.047,-0.426 0.047,-0.358C0.047,-0.309 0.075,-0.26 0.137,-0.233C0.254,-0.18 0.276,-0.161 0.276,-0.129C0.276,-0.106 0.255,-0.078 0.202,-0.078C0.161,-0.078 0.135,-0.095 0.121,-0.113C0.11,-0.128 0.095,-0.134 0.081,-0.134C0.055,-0.134 0.03,-0.113 0.03,-0.086C0.03,-0.053 0.081,0.016 0.203,0.016C0.303,0.016 0.378,-0.053 0.378,-0.131Z" style="fill:rgb(221,221,221);fill-rule:nonzero;"/>
        </g>
    </g>
</svg>
