<?xml version="1.0" encoding="UTF-8" standalone="no"?>
<!DOCTYPE svg PUBLIC "-//W3C//DTD SVG 1.1//EN" "http://www.w3.org/Graphics/SVG/1.1/DTD/svg11.dtd">
<svg width="100%" height="100%" viewBox="0 0 100 20" version="1.1" xmlns="http://www.w3.org/2000/svg" xmlns:xlink="http://www.w3.org/1999/xlink" xml:space="preserve" xmlns:serif="http://www.serif.com/" style="fill-rule:evenodd;clip-rule:evenodd;stroke-linejoin:round;stroke-miterlimit:2;">
    <g transform="matrix(0.992061,0,0,0.992074,-2.02251,4.83062)">
        <g transform="matrix(10.5,0,0,10.5,18.9018,9.09044)">
            <path d="M0.534,-0.199C0.534,-0.273 0.492,-0.349 0.392,-0.404C0.346,-0.429 0.277,-0.461 0.236,-0.483C0.192,-0.506 0.173,-0.54 0.173,-0.571C0.173,-0.616 0.212,-0.656 0.276,-0.656C0.338,-0.656 0.372,-0.631 0.391,-0.61C0.406,-0.593 0.423,-0.586 0.438,-0.586C0.469,-0.586 0.494,-0.614 0.494,-0.644C0.494,-0.691 0.415,-0.757 0.277,-0.757C0.139,-0.757 0.061,-0.664 0.061,-0.567C0.061,-0.498 0.101,-0.427 0.189,-0.387C0.242,-0.363 0.296,-0.333 0.34,-0.308C0.392,-0.279 0.416,-0.236 0.416,-0.196C0.416,-0.164 0.392,-0.089 0.282,-0.089C0.211,-0.089 0.162,-0.119 0.136,-0.156C0.124,-0.173 0.108,-0.181 0.092,-0.181C0.063,-0.181 0.034,-0.157 0.034,-0.124C0.034,-0.075 0.118,0.018 0.281,0.018C0.443,0.018 0.534,-0.092 0.534,-0.199Z" style="fill:rgb(221,221,221);fill-rule:nonzero;"/>
        </g>
        <g transform="matrix(10.5,0,0,10.5,24.8973,9.09044)">
            <path d="M0.296,0.015C0.439,0.015 0.547,-0.087 0.547,-0.238C0.547,-0.384 0.439,-0.491 0.296,-0.491C0.153,-0.491 0.044,-0.384 0.044,-0.238C0.044,-0.087 0.153,0.015 0.296,0.015ZM0.296,-0.079C0.213,-0.079 0.145,-0.14 0.145,-0.238C0.145,-0.337 0.214,-0.399 0.296,-0.399C0.378,-0.399 0.446,-0.337 0.446,-0.238C0.446,-0.14 0.379,-0.079 0.296,-0.079Z" style="fill:rgb(221,221,221);fill-rule:nonzero;"/>
        </g>
        <g transform="matrix(10.5,0,0,10.5,31.1028,9.09044)">
            <path d="M0.182,-0.436C0.182,-0.468 0.156,-0.485 0.131,-0.485C0.105,-0.485 0.079,-0.468 0.078,-0.432C0.077,-0.405 0.077,-0.365 0.077,-0.324C0.077,-0.257 0.078,-0.185 0.079,-0.153C0.083,-0.041 0.166,0.015 0.253,0.015C0.308,0.015 0.365,-0.007 0.404,-0.051C0.406,-0.053 0.407,-0.054 0.408,-0.054C0.409,-0.054 0.41,-0.052 0.411,-0.049C0.422,-0.016 0.436,0.008 0.47,0.008C0.496,0.008 0.522,-0.012 0.522,-0.044C0.522,-0.054 0.52,-0.066 0.513,-0.079C0.495,-0.114 0.486,-0.157 0.486,-0.201C0.486,-0.266 0.488,-0.327 0.491,-0.434L0.491,-0.436C0.491,-0.469 0.464,-0.486 0.438,-0.486C0.412,-0.486 0.386,-0.47 0.387,-0.435C0.389,-0.375 0.39,-0.324 0.39,-0.283C0.39,-0.242 0.389,-0.211 0.388,-0.189C0.385,-0.125 0.321,-0.076 0.265,-0.076C0.223,-0.076 0.186,-0.103 0.182,-0.168C0.181,-0.184 0.18,-0.218 0.18,-0.257C0.18,-0.319 0.181,-0.394 0.182,-0.435L0.182,-0.436Z" style="fill:rgb(221,221,221);fill-rule:nonzero;"/>
        </g>
        <g transform="matrix(10.5,0,0,10.5,37.0668,9.09044)">
            <path d="M0.402,-0.039C0.402,-0.007 0.428,0.011 0.454,0.011C0.48,0.011 0.505,-0.006 0.506,-0.042C0.507,-0.063 0.507,-0.091 0.507,-0.122C0.507,-0.196 0.505,-0.285 0.504,-0.321C0.5,-0.433 0.419,-0.488 0.335,-0.488C0.283,-0.488 0.23,-0.468 0.193,-0.428C0.191,-0.426 0.189,-0.424 0.188,-0.424C0.187,-0.424 0.187,-0.425 0.187,-0.426L0.187,-0.429C0.187,-0.432 0.188,-0.435 0.188,-0.439C0.188,-0.471 0.162,-0.486 0.137,-0.486C0.112,-0.486 0.083,-0.471 0.083,-0.441L0.083,-0.439C0.085,-0.372 0.086,-0.32 0.086,-0.26C0.086,-0.201 0.085,-0.135 0.082,-0.04L0.082,-0.038C0.082,-0.006 0.108,0.011 0.135,0.011C0.175,0.011 0.187,-0.019 0.186,-0.04C0.184,-0.111 0.183,-0.164 0.183,-0.205C0.183,-0.233 0.183,-0.256 0.184,-0.274C0.187,-0.341 0.26,-0.395 0.321,-0.395C0.363,-0.395 0.398,-0.37 0.402,-0.308C0.403,-0.292 0.404,-0.258 0.404,-0.218C0.404,-0.157 0.403,-0.081 0.402,-0.04L0.402,-0.039Z" style="fill:rgb(221,221,221);fill-rule:nonzero;"/>
        </g>
        <g transform="matrix(10.5,0,0,10.5,43.1148,9.09044)">
            <path d="M0.568,-0.047C0.568,-0.056 0.566,-0.065 0.561,-0.074C0.532,-0.13 0.531,-0.133 0.531,-0.504C0.531,-0.588 0.532,-0.659 0.534,-0.693L0.534,-0.698C0.534,-0.733 0.508,-0.75 0.482,-0.75C0.453,-0.75 0.43,-0.729 0.431,-0.698C0.432,-0.656 0.434,-0.554 0.434,-0.438C0.434,-0.435 0.433,-0.434 0.431,-0.434C0.43,-0.434 0.428,-0.434 0.427,-0.435C0.39,-0.468 0.343,-0.489 0.287,-0.489C0.149,-0.489 0.044,-0.384 0.044,-0.238C0.044,-0.087 0.149,0.013 0.287,0.013C0.352,0.013 0.406,-0.015 0.445,-0.057C0.447,-0.059 0.449,-0.061 0.45,-0.061C0.452,-0.061 0.453,-0.059 0.454,-0.055C0.468,-0 0.487,0.008 0.51,0.008C0.539,0.008 0.568,-0.015 0.568,-0.047ZM0.289,-0.08C0.209,-0.08 0.145,-0.14 0.145,-0.238C0.145,-0.337 0.209,-0.398 0.289,-0.398C0.369,-0.398 0.433,-0.337 0.433,-0.238C0.433,-0.14 0.369,-0.08 0.289,-0.08Z" style="fill:rgb(221,221,221);fill-rule:nonzero;"/>
        </g>
        <g transform="matrix(10.5,0,0,10.5,52.6173,9.09044)">
            <path d="M0.534,-0.199C0.534,-0.273 0.492,-0.349 0.392,-0.404C0.346,-0.429 0.277,-0.461 0.236,-0.483C0.192,-0.506 0.173,-0.54 0.173,-0.571C0.173,-0.616 0.212,-0.656 0.276,-0.656C0.338,-0.656 0.372,-0.631 0.391,-0.61C0.406,-0.593 0.423,-0.586 0.438,-0.586C0.469,-0.586 0.494,-0.614 0.494,-0.644C0.494,-0.691 0.415,-0.757 0.277,-0.757C0.139,-0.757 0.061,-0.664 0.061,-0.567C0.061,-0.498 0.101,-0.427 0.189,-0.387C0.242,-0.363 0.296,-0.333 0.34,-0.308C0.392,-0.279 0.416,-0.236 0.416,-0.196C0.416,-0.164 0.392,-0.089 0.282,-0.089C0.211,-0.089 0.162,-0.119 0.136,-0.156C0.124,-0.173 0.108,-0.181 0.092,-0.181C0.063,-0.181 0.034,-0.157 0.034,-0.124C0.034,-0.075 0.118,0.018 0.281,0.018C0.443,0.018 0.534,-0.092 0.534,-0.199Z" style="fill:rgb(221,221,221);fill-rule:nonzero;"/>
        </g>
        <g transform="matrix(10.5,0,0,10.5,58.6128,9.09044)">
            <path d="M0.296,0.015C0.439,0.015 0.547,-0.087 0.547,-0.238C0.547,-0.384 0.439,-0.491 0.296,-0.491C0.153,-0.491 0.044,-0.384 0.044,-0.238C0.044,-0.087 0.153,0.015 0.296,0.015ZM0.296,-0.079C0.213,-0.079 0.145,-0.14 0.145,-0.238C0.145,-0.337 0.214,-0.399 0.296,-0.399C0.378,-0.399 0.446,-0.337 0.446,-0.238C0.446,-0.14 0.379,-0.079 0.296,-0.079Z" style="fill:rgb(221,221,221);fill-rule:nonzero;"/>
        </g>
        <g transform="matrix(10.5,0,0,10.5,64.8183,9.09044)">
            <path d="M0.182,-0.436C0.182,-0.468 0.156,-0.485 0.131,-0.485C0.105,-0.485 0.079,-0.468 0.078,-0.432C0.077,-0.405 0.077,-0.365 0.077,-0.324C0.077,-0.257 0.078,-0.185 0.079,-0.153C0.083,-0.041 0.166,0.015 0.253,0.015C0.308,0.015 0.365,-0.007 0.404,-0.051C0.406,-0.053 0.407,-0.054 0.408,-0.054C0.409,-0.054 0.41,-0.052 0.411,-0.049C0.422,-0.016 0.436,0.008 0.47,0.008C0.496,0.008 0.522,-0.012 0.522,-0.044C0.522,-0.054 0.52,-0.066 0.513,-0.079C0.495,-0.114 0.486,-0.157 0.486,-0.201C0.486,-0.266 0.488,-0.327 0.491,-0.434L0.491,-0.436C0.491,-0.469 0.464,-0.486 0.438,-0.486C0.412,-0.486 0.386,-0.47 0.387,-0.435C0.389,-0.375 0.39,-0.324 0.39,-0.283C0.39,-0.242 0.389,-0.211 0.388,-0.189C0.385,-0.125 0.321,-0.076 0.265,-0.076C0.223,-0.076 0.186,-0.103 0.182,-0.168C0.181,-0.184 0.18,-0.218 0.18,-0.257C0.18,-0.319 0.181,-0.394 0.182,-0.435L0.182,-0.436Z" style="fill:rgb(221,221,221);fill-rule:nonzero;"/>
        </g>
        <g transform="matrix(10.5,0,0,10.5,70.7823,9.09044)">
            <path d="M0.136,0.011C0.176,0.011 0.188,-0.019 0.187,-0.04C0.185,-0.111 0.184,-0.161 0.184,-0.2C0.184,-0.227 0.184,-0.248 0.185,-0.266C0.188,-0.329 0.254,-0.378 0.313,-0.384C0.352,-0.388 0.37,-0.414 0.37,-0.439C0.37,-0.464 0.352,-0.487 0.321,-0.487C0.287,-0.487 0.233,-0.47 0.193,-0.426C0.191,-0.423 0.189,-0.422 0.189,-0.422C0.188,-0.422 0.188,-0.423 0.188,-0.425L0.188,-0.429C0.188,-0.432 0.189,-0.435 0.189,-0.439C0.189,-0.471 0.163,-0.486 0.138,-0.486C0.113,-0.486 0.084,-0.471 0.084,-0.441L0.084,-0.439C0.086,-0.372 0.087,-0.32 0.087,-0.26C0.087,-0.201 0.086,-0.135 0.083,-0.04L0.083,-0.038C0.083,-0.006 0.109,0.011 0.136,0.011Z" style="fill:rgb(221,221,221);fill-rule:nonzero;"/>
        </g>
        <g transform="matrix(10.5,0,0,10.5,74.8458,9.09044)">
            <path d="M0.496,-0.099C0.496,-0.127 0.469,-0.152 0.44,-0.152C0.426,-0.152 0.411,-0.146 0.399,-0.13C0.377,-0.1 0.335,-0.084 0.293,-0.084C0.155,-0.084 0.145,-0.217 0.145,-0.239C0.145,-0.33 0.206,-0.396 0.291,-0.396C0.326,-0.396 0.361,-0.384 0.382,-0.358C0.395,-0.342 0.41,-0.336 0.424,-0.336C0.452,-0.336 0.477,-0.36 0.477,-0.388C0.477,-0.429 0.404,-0.492 0.297,-0.492C0.14,-0.492 0.044,-0.369 0.044,-0.234C0.044,-0.127 0.112,0.015 0.294,0.015C0.411,0.015 0.496,-0.056 0.496,-0.099Z" style="fill:rgb(221,221,221);fill-rule:nonzero;"/>
        </g>
        <g transform="matrix(10.5,0,0,10.5,80.3478,9.09044)">
            <path d="M0.487,-0.066C0.498,-0.077 0.502,-0.089 0.502,-0.101C0.502,-0.129 0.476,-0.153 0.449,-0.153C0.437,-0.153 0.425,-0.148 0.415,-0.137C0.386,-0.106 0.348,-0.076 0.285,-0.076C0.214,-0.076 0.15,-0.126 0.149,-0.209C0.149,-0.22 0.151,-0.228 0.157,-0.228C0.351,-0.228 0.372,-0.228 0.403,-0.229C0.467,-0.231 0.498,-0.269 0.498,-0.316C0.498,-0.392 0.42,-0.493 0.282,-0.493C0.153,-0.493 0.045,-0.388 0.045,-0.235C0.045,-0.086 0.147,0.017 0.284,0.017C0.385,0.017 0.439,-0.016 0.487,-0.066ZM0.374,-0.311C0.347,-0.31 0.302,-0.31 0.261,-0.31C0.168,-0.31 0.158,-0.31 0.158,-0.319C0.158,-0.336 0.202,-0.406 0.283,-0.406C0.373,-0.406 0.394,-0.347 0.394,-0.333C0.394,-0.321 0.386,-0.312 0.374,-0.311Z" style="fill:rgb(221,221,221);fill-rule:nonzero;"/>
        </g>
    </g>
</svg>
