<?xml version="1.0" encoding="UTF-8" standalone="no"?>
<!DOCTYPE svg PUBLIC "-//W3C//DTD SVG 1.1//EN" "http://www.w3.org/Graphics/SVG/1.1/DTD/svg11.dtd">
<svg width="100%" height="100%" viewBox="0 0 100 20" version="1.1" xmlns="http://www.w3.org/2000/svg" xmlns:xlink="http://www.w3.org/1999/xlink" xml:space="preserve" xmlns:serif="http://www.serif.com/" style="fill-rule:evenodd;clip-rule:evenodd;stroke-linejoin:round;stroke-miterlimit:2;">
    <g transform="matrix(1,0,0,1,2.61031,4.44382)">
        <g transform="matrix(10.4167,0,0,10.4167,15.1657,9.40514)">
            <path d="M0.418,-0.062C0.456,-0.184 0.571,-0.502 0.63,-0.676C0.632,-0.683 0.633,-0.689 0.633,-0.695C0.633,-0.729 0.601,-0.752 0.569,-0.752C0.546,-0.752 0.523,-0.74 0.514,-0.712C0.47,-0.581 0.368,-0.249 0.34,-0.165C0.335,-0.149 0.33,-0.143 0.326,-0.143C0.321,-0.143 0.317,-0.15 0.313,-0.162C0.271,-0.286 0.166,-0.633 0.149,-0.705C0.141,-0.737 0.115,-0.752 0.09,-0.752C0.06,-0.752 0.03,-0.731 0.03,-0.692C0.03,-0.646 0.189,-0.19 0.239,-0.063C0.258,-0.016 0.296,0.01 0.333,0.01C0.368,0.01 0.402,-0.013 0.418,-0.062Z" style="fill:rgb(221,221,221);fill-rule:nonzero;"/>
        </g>
        <g transform="matrix(10.4167,0,0,10.4167,22.072,9.40514)">
            <path d="M0.14,-0.615C0.183,-0.615 0.21,-0.65 0.21,-0.686C0.21,-0.724 0.176,-0.754 0.14,-0.754C0.112,-0.754 0.07,-0.735 0.07,-0.686C0.07,-0.64 0.101,-0.615 0.14,-0.615ZM0.194,-0.037L0.194,-0.039C0.193,-0.094 0.192,-0.165 0.192,-0.234C0.192,-0.318 0.193,-0.397 0.194,-0.438L0.194,-0.44C0.194,-0.472 0.167,-0.488 0.141,-0.488C0.111,-0.488 0.086,-0.47 0.087,-0.437C0.088,-0.41 0.088,-0.37 0.088,-0.325C0.088,-0.234 0.087,-0.12 0.087,-0.037C0.087,-0.003 0.113,0.014 0.14,0.014C0.167,0.014 0.194,-0.003 0.194,-0.037Z" style="fill:rgb(221,221,221);fill-rule:nonzero;"/>
        </g>
        <g transform="matrix(10.4167,0,0,10.4167,24.9886,9.40514)">
            <path d="M0.378,-0.131C0.378,-0.18 0.349,-0.231 0.28,-0.268C0.25,-0.284 0.205,-0.304 0.179,-0.317C0.156,-0.328 0.146,-0.346 0.146,-0.361C0.146,-0.383 0.165,-0.402 0.199,-0.402C0.234,-0.402 0.252,-0.388 0.262,-0.378C0.275,-0.364 0.29,-0.358 0.303,-0.358C0.33,-0.358 0.353,-0.381 0.353,-0.408C0.353,-0.447 0.291,-0.492 0.199,-0.492C0.103,-0.492 0.047,-0.426 0.047,-0.358C0.047,-0.309 0.075,-0.26 0.137,-0.233C0.254,-0.18 0.276,-0.161 0.276,-0.129C0.276,-0.106 0.255,-0.078 0.202,-0.078C0.161,-0.078 0.135,-0.095 0.121,-0.113C0.11,-0.128 0.095,-0.134 0.081,-0.134C0.055,-0.134 0.03,-0.113 0.03,-0.086C0.03,-0.053 0.081,0.016 0.203,0.016C0.303,0.016 0.378,-0.053 0.378,-0.131Z" style="fill:rgb(221,221,221);fill-rule:nonzero;"/>
        </g>
        <g transform="matrix(10.4167,0,0,10.4167,29.3116,9.40514)">
            <path d="M0.182,-0.436C0.182,-0.468 0.156,-0.485 0.131,-0.485C0.105,-0.485 0.079,-0.468 0.078,-0.432C0.077,-0.405 0.077,-0.365 0.077,-0.324C0.077,-0.257 0.078,-0.185 0.079,-0.153C0.083,-0.041 0.166,0.015 0.253,0.015C0.308,0.015 0.365,-0.007 0.404,-0.051C0.406,-0.053 0.407,-0.054 0.408,-0.054C0.409,-0.054 0.41,-0.052 0.411,-0.049C0.422,-0.016 0.436,0.008 0.47,0.008C0.496,0.008 0.522,-0.012 0.522,-0.044C0.522,-0.054 0.52,-0.066 0.513,-0.079C0.495,-0.114 0.486,-0.157 0.486,-0.201C0.486,-0.266 0.488,-0.327 0.491,-0.434L0.491,-0.436C0.491,-0.469 0.464,-0.486 0.438,-0.486C0.412,-0.486 0.386,-0.47 0.387,-0.435C0.389,-0.375 0.39,-0.324 0.39,-0.283C0.39,-0.242 0.389,-0.211 0.388,-0.189C0.385,-0.125 0.321,-0.076 0.265,-0.076C0.223,-0.076 0.186,-0.103 0.182,-0.168C0.181,-0.184 0.18,-0.218 0.18,-0.257C0.18,-0.319 0.181,-0.394 0.182,-0.435L0.182,-0.436Z" style="fill:rgb(221,221,221);fill-rule:nonzero;"/>
        </g>
        <g transform="matrix(10.4167,0,0,10.4167,35.2282,9.40514)">
            <path d="M0.453,0.005C0.482,0.005 0.504,-0.027 0.504,-0.055C0.504,-0.069 0.499,-0.082 0.488,-0.09C0.48,-0.096 0.443,-0.099 0.434,-0.179C0.433,-0.185 0.433,-0.193 0.433,-0.202C0.433,-0.232 0.436,-0.27 0.438,-0.285C0.439,-0.299 0.44,-0.311 0.44,-0.324C0.44,-0.439 0.38,-0.493 0.27,-0.493C0.169,-0.493 0.081,-0.44 0.081,-0.392C0.081,-0.366 0.103,-0.346 0.129,-0.346C0.141,-0.346 0.155,-0.351 0.166,-0.364C0.185,-0.385 0.219,-0.406 0.264,-0.406C0.332,-0.406 0.335,-0.355 0.335,-0.343C0.335,-0.322 0.327,-0.31 0.317,-0.309C0.301,-0.308 0.215,-0.289 0.146,-0.265C0.079,-0.242 0.049,-0.191 0.049,-0.14C0.049,-0.063 0.114,0.017 0.224,0.017C0.283,0.017 0.346,-0.004 0.38,-0.043C0.382,-0.045 0.384,-0.046 0.386,-0.046C0.387,-0.046 0.389,-0.045 0.39,-0.043C0.399,-0.028 0.408,-0.017 0.417,-0.01C0.429,-0 0.442,0.005 0.453,0.005ZM0.326,-0.225C0.338,-0.225 0.34,-0.203 0.34,-0.188C0.34,-0.117 0.305,-0.076 0.224,-0.076C0.173,-0.076 0.146,-0.107 0.146,-0.138C0.146,-0.162 0.156,-0.204 0.325,-0.225L0.326,-0.225Z" style="fill:rgb(221,221,221);fill-rule:nonzero;"/>
        </g>
        <g transform="matrix(10.4167,0,0,10.4167,40.6657,9.40514)">
            <path d="M0.086,-0.045C0.086,-0.01 0.113,0.008 0.141,0.008C0.168,0.008 0.195,-0.009 0.195,-0.044L0.195,-0.046C0.193,-0.122 0.192,-0.229 0.192,-0.335C0.192,-0.491 0.194,-0.645 0.195,-0.694L0.195,-0.696C0.195,-0.731 0.168,-0.749 0.141,-0.749C0.112,-0.749 0.085,-0.729 0.086,-0.693C0.088,-0.653 0.088,-0.526 0.088,-0.392C0.088,-0.258 0.088,-0.116 0.086,-0.046L0.086,-0.045Z" style="fill:rgb(221,221,221);fill-rule:nonzero;"/>
        </g>
        <g transform="matrix(10.4167,0,0,10.4167,46.5616,9.40514)">
            <path d="M0.534,-0.199C0.534,-0.273 0.492,-0.349 0.392,-0.404C0.346,-0.429 0.277,-0.461 0.236,-0.483C0.192,-0.506 0.173,-0.54 0.173,-0.571C0.173,-0.616 0.212,-0.656 0.276,-0.656C0.338,-0.656 0.372,-0.631 0.391,-0.61C0.406,-0.593 0.423,-0.586 0.438,-0.586C0.469,-0.586 0.494,-0.614 0.494,-0.644C0.494,-0.691 0.415,-0.757 0.277,-0.757C0.139,-0.757 0.061,-0.664 0.061,-0.567C0.061,-0.498 0.101,-0.427 0.189,-0.387C0.242,-0.363 0.296,-0.333 0.34,-0.308C0.392,-0.279 0.416,-0.236 0.416,-0.196C0.416,-0.164 0.392,-0.089 0.282,-0.089C0.211,-0.089 0.162,-0.119 0.136,-0.156C0.124,-0.173 0.108,-0.181 0.092,-0.181C0.063,-0.181 0.034,-0.157 0.034,-0.124C0.034,-0.075 0.118,0.018 0.281,0.018C0.443,0.018 0.534,-0.092 0.534,-0.199Z" style="fill:rgb(221,221,221);fill-rule:nonzero;"/>
        </g>
        <g transform="matrix(10.4167,0,0,10.4167,52.5095,9.40514)">
            <path d="M0.296,0.015C0.439,0.015 0.547,-0.087 0.547,-0.238C0.547,-0.384 0.439,-0.491 0.296,-0.491C0.153,-0.491 0.044,-0.384 0.044,-0.238C0.044,-0.087 0.153,0.015 0.296,0.015ZM0.296,-0.079C0.213,-0.079 0.145,-0.14 0.145,-0.238C0.145,-0.337 0.214,-0.399 0.296,-0.399C0.378,-0.399 0.446,-0.337 0.446,-0.238C0.446,-0.14 0.379,-0.079 0.296,-0.079Z" style="fill:rgb(221,221,221);fill-rule:nonzero;"/>
        </g>
        <g transform="matrix(10.4167,0,0,10.4167,58.6657,9.40514)">
            <path d="M0.182,-0.436C0.182,-0.468 0.156,-0.485 0.131,-0.485C0.105,-0.485 0.079,-0.468 0.078,-0.432C0.077,-0.405 0.077,-0.365 0.077,-0.324C0.077,-0.257 0.078,-0.185 0.079,-0.153C0.083,-0.041 0.166,0.015 0.253,0.015C0.308,0.015 0.365,-0.007 0.404,-0.051C0.406,-0.053 0.407,-0.054 0.408,-0.054C0.409,-0.054 0.41,-0.052 0.411,-0.049C0.422,-0.016 0.436,0.008 0.47,0.008C0.496,0.008 0.522,-0.012 0.522,-0.044C0.522,-0.054 0.52,-0.066 0.513,-0.079C0.495,-0.114 0.486,-0.157 0.486,-0.201C0.486,-0.266 0.488,-0.327 0.491,-0.434L0.491,-0.436C0.491,-0.469 0.464,-0.486 0.438,-0.486C0.412,-0.486 0.386,-0.47 0.387,-0.435C0.389,-0.375 0.39,-0.324 0.39,-0.283C0.39,-0.242 0.389,-0.211 0.388,-0.189C0.385,-0.125 0.321,-0.076 0.265,-0.076C0.223,-0.076 0.186,-0.103 0.182,-0.168C0.181,-0.184 0.18,-0.218 0.18,-0.257C0.18,-0.319 0.181,-0.394 0.182,-0.435L0.182,-0.436Z" style="fill:rgb(221,221,221);fill-rule:nonzero;"/>
        </g>
        <g transform="matrix(10.4167,0,0,10.4167,64.5824,9.40514)">
            <path d="M0.136,0.011C0.176,0.011 0.188,-0.019 0.187,-0.04C0.185,-0.111 0.184,-0.161 0.184,-0.2C0.184,-0.227 0.184,-0.248 0.185,-0.266C0.188,-0.329 0.254,-0.378 0.313,-0.384C0.352,-0.388 0.37,-0.414 0.37,-0.439C0.37,-0.464 0.352,-0.487 0.321,-0.487C0.287,-0.487 0.233,-0.47 0.193,-0.426C0.191,-0.423 0.189,-0.422 0.189,-0.422C0.188,-0.422 0.188,-0.423 0.188,-0.425L0.188,-0.429C0.188,-0.432 0.189,-0.435 0.189,-0.439C0.189,-0.471 0.163,-0.486 0.138,-0.486C0.113,-0.486 0.084,-0.471 0.084,-0.441L0.084,-0.439C0.086,-0.372 0.087,-0.32 0.087,-0.26C0.087,-0.201 0.086,-0.135 0.083,-0.04L0.083,-0.038C0.083,-0.006 0.109,0.011 0.136,0.011Z" style="fill:rgb(221,221,221);fill-rule:nonzero;"/>
        </g>
        <g transform="matrix(10.4167,0,0,10.4167,68.6136,9.40514)">
            <path d="M0.496,-0.099C0.496,-0.127 0.469,-0.152 0.44,-0.152C0.426,-0.152 0.411,-0.146 0.399,-0.13C0.377,-0.1 0.335,-0.084 0.293,-0.084C0.155,-0.084 0.145,-0.217 0.145,-0.239C0.145,-0.33 0.206,-0.396 0.291,-0.396C0.326,-0.396 0.361,-0.384 0.382,-0.358C0.395,-0.342 0.41,-0.336 0.424,-0.336C0.452,-0.336 0.477,-0.36 0.477,-0.388C0.477,-0.429 0.404,-0.492 0.297,-0.492C0.14,-0.492 0.044,-0.369 0.044,-0.234C0.044,-0.127 0.112,0.015 0.294,0.015C0.411,0.015 0.496,-0.056 0.496,-0.099Z" style="fill:rgb(221,221,221);fill-rule:nonzero;"/>
        </g>
        <g transform="matrix(10.4167,0,0,10.4167,74.072,9.40514)">
            <path d="M0.487,-0.066C0.498,-0.077 0.502,-0.089 0.502,-0.101C0.502,-0.129 0.476,-0.153 0.449,-0.153C0.437,-0.153 0.425,-0.148 0.415,-0.137C0.386,-0.106 0.348,-0.076 0.285,-0.076C0.214,-0.076 0.15,-0.126 0.149,-0.209C0.149,-0.22 0.151,-0.228 0.157,-0.228C0.351,-0.228 0.372,-0.228 0.403,-0.229C0.467,-0.231 0.498,-0.269 0.498,-0.316C0.498,-0.392 0.42,-0.493 0.282,-0.493C0.153,-0.493 0.045,-0.388 0.045,-0.235C0.045,-0.086 0.147,0.017 0.284,0.017C0.385,0.017 0.439,-0.016 0.487,-0.066ZM0.374,-0.311C0.347,-0.31 0.302,-0.31 0.261,-0.31C0.168,-0.31 0.158,-0.31 0.158,-0.319C0.158,-0.336 0.202,-0.406 0.283,-0.406C0.373,-0.406 0.394,-0.347 0.394,-0.333C0.394,-0.321 0.386,-0.312 0.374,-0.311Z" style="fill:rgb(221,221,221);fill-rule:nonzero;"/>
        </g>
    </g>
</svg>
