<?xml version="1.0" encoding="UTF-8" standalone="no"?>
<!DOCTYPE svg PUBLIC "-//W3C//DTD SVG 1.1//EN" "http://www.w3.org/Graphics/SVG/1.1/DTD/svg11.dtd">
<svg width="100%" height="100%" viewBox="0 0 60 20" version="1.1" xmlns="http://www.w3.org/2000/svg" xmlns:xlink="http://www.w3.org/1999/xlink" xml:space="preserve" xmlns:serif="http://www.serif.com/" style="fill-rule:evenodd;clip-rule:evenodd;stroke-linejoin:round;stroke-miterlimit:2;">
    <g transform="matrix(1.3889,0,0,1.38893,-4.0725,-1.25045)">
        <g transform="matrix(12,0,0,12,11.0321,12.5341)">
            <path d="M0.603,-0.282C0.621,-0.282 0.636,-0.273 0.636,-0.254C0.636,-0.225 0.591,-0.097 0.426,-0.097C0.255,-0.097 0.169,-0.234 0.169,-0.367C0.169,-0.495 0.254,-0.648 0.429,-0.648C0.492,-0.648 0.555,-0.625 0.594,-0.577C0.609,-0.558 0.627,-0.55 0.645,-0.55C0.677,-0.55 0.706,-0.578 0.706,-0.612C0.706,-0.666 0.598,-0.758 0.439,-0.758C0.195,-0.758 0.052,-0.565 0.052,-0.362C0.052,-0.131 0.225,0.019 0.426,0.019C0.664,0.019 0.766,-0.168 0.766,-0.282C0.766,-0.344 0.734,-0.388 0.648,-0.388C0.615,-0.388 0.559,-0.39 0.51,-0.39C0.477,-0.39 0.434,-0.39 0.434,-0.337C0.434,-0.308 0.452,-0.279 0.484,-0.279L0.486,-0.279C0.541,-0.281 0.591,-0.282 0.601,-0.282L0.603,-0.282Z" style="fill:rgb(221,221,221);fill-rule:nonzero;"/>
        </g>
        <g transform="matrix(12,0,0,12,20.6801,12.5341)">
            <path d="M0.453,0.005C0.482,0.005 0.504,-0.027 0.504,-0.055C0.504,-0.069 0.499,-0.082 0.488,-0.09C0.48,-0.096 0.443,-0.099 0.434,-0.179C0.433,-0.185 0.433,-0.193 0.433,-0.202C0.433,-0.232 0.436,-0.27 0.438,-0.285C0.439,-0.299 0.44,-0.311 0.44,-0.324C0.44,-0.439 0.38,-0.493 0.27,-0.493C0.169,-0.493 0.081,-0.44 0.081,-0.392C0.081,-0.366 0.103,-0.346 0.129,-0.346C0.141,-0.346 0.155,-0.351 0.166,-0.364C0.185,-0.385 0.219,-0.406 0.264,-0.406C0.332,-0.406 0.335,-0.355 0.335,-0.343C0.335,-0.322 0.327,-0.31 0.317,-0.309C0.301,-0.308 0.215,-0.289 0.146,-0.265C0.079,-0.242 0.049,-0.191 0.049,-0.14C0.049,-0.063 0.114,0.017 0.224,0.017C0.283,0.017 0.346,-0.004 0.38,-0.043C0.382,-0.045 0.384,-0.046 0.386,-0.046C0.387,-0.046 0.389,-0.045 0.39,-0.043C0.399,-0.028 0.408,-0.017 0.417,-0.01C0.429,-0 0.442,0.005 0.453,0.005ZM0.326,-0.225C0.338,-0.225 0.34,-0.203 0.34,-0.188C0.34,-0.117 0.305,-0.076 0.224,-0.076C0.173,-0.076 0.146,-0.107 0.146,-0.138C0.146,-0.162 0.156,-0.204 0.325,-0.225L0.326,-0.225Z" style="fill:rgb(221,221,221);fill-rule:nonzero;"/>
        </g>
        <g transform="matrix(12,0,0,12,26.9441,12.5341)">
            <path d="M0.294,-0.388C0.324,-0.388 0.338,-0.412 0.338,-0.435C0.338,-0.459 0.324,-0.482 0.294,-0.482L0.227,-0.482C0.217,-0.482 0.213,-0.483 0.213,-0.499C0.213,-0.499 0.215,-0.537 0.215,-0.564C0.215,-0.577 0.215,-0.625 0.162,-0.625C0.136,-0.625 0.112,-0.61 0.112,-0.58L0.112,-0.577C0.113,-0.566 0.113,-0.554 0.113,-0.542C0.113,-0.519 0.112,-0.499 0.112,-0.499C0.112,-0.485 0.111,-0.482 0.095,-0.482L0.066,-0.482C0.036,-0.482 0.021,-0.459 0.021,-0.436C0.021,-0.412 0.037,-0.388 0.066,-0.388L0.096,-0.388C0.106,-0.388 0.112,-0.387 0.112,-0.374L0.112,-0.359C0.112,-0.315 0.11,-0.215 0.11,-0.157C0.11,-0.116 0.11,0.015 0.258,0.015C0.31,0.015 0.343,-0.002 0.343,-0.038C0.343,-0.06 0.327,-0.082 0.3,-0.082C0.297,-0.082 0.295,-0.081 0.292,-0.081C0.284,-0.08 0.276,-0.079 0.269,-0.079C0.213,-0.079 0.21,-0.111 0.21,-0.189C0.21,-0.255 0.213,-0.34 0.213,-0.377C0.213,-0.383 0.213,-0.388 0.228,-0.388L0.294,-0.388Z" style="fill:rgb(221,221,221);fill-rule:nonzero;"/>
        </g>
        <g transform="matrix(12,0,0,12,31.3841,12.5341)">
            <path d="M0.487,-0.066C0.498,-0.077 0.502,-0.089 0.502,-0.101C0.502,-0.129 0.476,-0.153 0.449,-0.153C0.437,-0.153 0.425,-0.148 0.415,-0.137C0.386,-0.106 0.348,-0.076 0.285,-0.076C0.214,-0.076 0.15,-0.126 0.149,-0.209C0.149,-0.22 0.151,-0.228 0.157,-0.228C0.351,-0.228 0.372,-0.228 0.403,-0.229C0.467,-0.231 0.498,-0.269 0.498,-0.316C0.498,-0.392 0.42,-0.493 0.282,-0.493C0.153,-0.493 0.045,-0.388 0.045,-0.235C0.045,-0.086 0.147,0.017 0.284,0.017C0.385,0.017 0.439,-0.016 0.487,-0.066ZM0.374,-0.311C0.347,-0.31 0.302,-0.31 0.261,-0.31C0.168,-0.31 0.158,-0.31 0.158,-0.319C0.158,-0.336 0.202,-0.406 0.283,-0.406C0.373,-0.406 0.394,-0.347 0.394,-0.333C0.394,-0.321 0.386,-0.312 0.374,-0.311Z" style="fill:rgb(221,221,221);fill-rule:nonzero;"/>
        </g>
    </g>
</svg>
