<?xml version="1.0" encoding="UTF-8" standalone="no"?>
<!DOCTYPE svg PUBLIC "-//W3C//DTD SVG 1.1//EN" "http://www.w3.org/Graphics/SVG/1.1/DTD/svg11.dtd">
<svg width="100%" height="100%" viewBox="0 0 40 20" version="1.1" xmlns="http://www.w3.org/2000/svg" xmlns:xlink="http://www.w3.org/1999/xlink" xml:space="preserve" xmlns:serif="http://www.serif.com/" style="fill-rule:evenodd;clip-rule:evenodd;stroke-linejoin:round;stroke-miterlimit:2;">
    <g transform="matrix(1,0,0,1,-5.95201,7.5744)">
        <g transform="matrix(16.6667,0,0,16.6667,5.70201,8.0756)">
            <path d="M0.092,-0.69L0.092,-0.668C0.092,-0.569 0.088,-0.35 0.088,-0.213C0.088,-0.176 0.088,-0.144 0.089,-0.123C0.092,-0.035 0.147,-0.002 0.239,0.005C0.252,0.006 0.311,0.007 0.369,0.007C0.428,0.007 0.487,0.006 0.5,0.005C0.543,0.003 0.563,-0.025 0.563,-0.052C0.563,-0.079 0.543,-0.105 0.509,-0.105L0.504,-0.105C0.485,-0.104 0.421,-0.103 0.363,-0.103C0.227,-0.103 0.205,-0.103 0.201,-0.151C0.2,-0.168 0.199,-0.213 0.199,-0.27C0.199,-0.409 0.202,-0.62 0.205,-0.684L0.205,-0.688C0.205,-0.729 0.176,-0.749 0.148,-0.749C0.12,-0.749 0.092,-0.729 0.092,-0.69Z" style="fill:rgb(221,221,221);fill-rule:nonzero;"/>
        </g>
        <g transform="matrix(16.6667,0,0,16.6667,15.5353,8.0756)">
            <path d="M0.296,0.015C0.439,0.015 0.547,-0.087 0.547,-0.238C0.547,-0.384 0.439,-0.491 0.296,-0.491C0.153,-0.491 0.044,-0.384 0.044,-0.238C0.044,-0.087 0.153,0.015 0.296,0.015ZM0.296,-0.079C0.213,-0.079 0.145,-0.14 0.145,-0.238C0.145,-0.337 0.214,-0.399 0.296,-0.399C0.378,-0.399 0.446,-0.337 0.446,-0.238C0.446,-0.14 0.379,-0.079 0.296,-0.079Z" style="fill:rgb(221,221,221);fill-rule:nonzero;"/>
        </g>
        <g transform="matrix(16.6667,0,0,16.6667,25.3853,8.0756)">
            <path d="M0.296,0.015C0.439,0.015 0.547,-0.087 0.547,-0.238C0.547,-0.384 0.439,-0.491 0.296,-0.491C0.153,-0.491 0.044,-0.384 0.044,-0.238C0.044,-0.087 0.153,0.015 0.296,0.015ZM0.296,-0.079C0.213,-0.079 0.145,-0.14 0.145,-0.238C0.145,-0.337 0.214,-0.399 0.296,-0.399C0.378,-0.399 0.446,-0.337 0.446,-0.238C0.446,-0.14 0.379,-0.079 0.296,-0.079Z" style="fill:rgb(221,221,221);fill-rule:nonzero;"/>
        </g>
        <g transform="matrix(16.6667,0,0,16.6667,35.2353,8.0756)">
            <path d="M0.183,-0.439C0.179,-0.469 0.156,-0.485 0.133,-0.485C0.107,-0.485 0.081,-0.466 0.081,-0.429C0.081,-0.334 0.083,-0.146 0.083,0.005C0.083,0.093 0.083,0.168 0.08,0.204L0.08,0.209C0.08,0.243 0.106,0.261 0.133,0.261C0.164,0.261 0.185,0.24 0.184,0.209C0.183,0.168 0.181,0.073 0.181,-0.037C0.181,-0.041 0.182,-0.043 0.184,-0.043C0.185,-0.043 0.187,-0.041 0.189,-0.04C0.226,-0.008 0.273,0.013 0.328,0.013C0.466,0.013 0.57,-0.092 0.57,-0.238C0.57,-0.389 0.466,-0.489 0.328,-0.489C0.273,-0.489 0.226,-0.469 0.189,-0.437C0.188,-0.436 0.187,-0.436 0.186,-0.436C0.185,-0.436 0.184,-0.437 0.183,-0.439ZM0.326,-0.078C0.246,-0.078 0.182,-0.139 0.182,-0.238C0.182,-0.336 0.246,-0.396 0.326,-0.396C0.406,-0.396 0.47,-0.336 0.47,-0.238C0.47,-0.139 0.406,-0.078 0.326,-0.078Z" style="fill:rgb(221,221,221);fill-rule:nonzero;"/>
        </g>
    </g>
</svg>
