<?xml version="1.0" encoding="UTF-8" standalone="no"?>
<!DOCTYPE svg PUBLIC "-//W3C//DTD SVG 1.1//EN" "http://www.w3.org/Graphics/SVG/1.1/DTD/svg11.dtd">
<svg width="100%" height="100%" viewBox="0 0 40 20" version="1.1" xmlns="http://www.w3.org/2000/svg" xmlns:xlink="http://www.w3.org/1999/xlink" xml:space="preserve" xmlns:serif="http://www.serif.com/" style="fill-rule:evenodd;clip-rule:evenodd;stroke-linejoin:round;stroke-miterlimit:2;">
    <g transform="matrix(1,0,0,1,-6.07701,8.04107)">
        <g transform="matrix(16.6667,0,0,16.6667,5.70201,8.0756)">
            <path d="M0.069,-0.035C0.069,-0.005 0.095,0.01 0.122,0.01C0.151,0.01 0.181,-0.007 0.182,-0.04C0.187,-0.178 0.201,-0.482 0.208,-0.57C0.21,-0.591 0.214,-0.599 0.219,-0.599C0.223,-0.599 0.228,-0.592 0.232,-0.58C0.269,-0.462 0.357,-0.145 0.389,-0.069C0.405,-0.029 0.433,-0.013 0.461,-0.013C0.494,-0.013 0.526,-0.036 0.539,-0.07C0.58,-0.177 0.683,-0.502 0.705,-0.585C0.708,-0.597 0.715,-0.606 0.72,-0.606C0.725,-0.606 0.729,-0.599 0.729,-0.582C0.729,-0.582 0.739,-0.185 0.749,-0.042C0.751,-0.007 0.78,0.01 0.809,0.01C0.838,0.01 0.867,-0.008 0.867,-0.042L0.867,-0.046C0.859,-0.188 0.837,-0.513 0.834,-0.642C0.832,-0.712 0.784,-0.751 0.734,-0.751C0.693,-0.751 0.65,-0.725 0.631,-0.669C0.592,-0.555 0.512,-0.277 0.474,-0.185C0.472,-0.179 0.468,-0.176 0.465,-0.176C0.461,-0.176 0.458,-0.179 0.455,-0.185C0.431,-0.234 0.343,-0.544 0.305,-0.664C0.287,-0.722 0.245,-0.75 0.204,-0.75C0.157,-0.75 0.111,-0.712 0.107,-0.638C0.099,-0.493 0.076,-0.212 0.069,-0.037L0.069,-0.035Z" style="fill:rgb(221,221,221);fill-rule:nonzero;"/>
        </g>
        <g transform="matrix(16.6667,0,0,16.6667,21.302,8.0756)">
            <path d="M0.182,-0.436C0.182,-0.468 0.156,-0.485 0.131,-0.485C0.105,-0.485 0.079,-0.468 0.078,-0.432C0.077,-0.405 0.077,-0.365 0.077,-0.324C0.077,-0.257 0.078,-0.185 0.079,-0.153C0.083,-0.041 0.166,0.015 0.253,0.015C0.308,0.015 0.365,-0.007 0.404,-0.051C0.406,-0.053 0.407,-0.054 0.408,-0.054C0.409,-0.054 0.41,-0.052 0.411,-0.049C0.422,-0.016 0.436,0.008 0.47,0.008C0.496,0.008 0.522,-0.012 0.522,-0.044C0.522,-0.054 0.52,-0.066 0.513,-0.079C0.495,-0.114 0.486,-0.157 0.486,-0.201C0.486,-0.266 0.488,-0.327 0.491,-0.434L0.491,-0.436C0.491,-0.469 0.464,-0.486 0.438,-0.486C0.412,-0.486 0.386,-0.47 0.387,-0.435C0.389,-0.375 0.39,-0.324 0.39,-0.283C0.39,-0.242 0.389,-0.211 0.388,-0.189C0.385,-0.125 0.321,-0.076 0.265,-0.076C0.223,-0.076 0.186,-0.103 0.182,-0.168C0.181,-0.184 0.18,-0.218 0.18,-0.257C0.18,-0.319 0.181,-0.394 0.182,-0.435L0.182,-0.436Z" style="fill:rgb(221,221,221);fill-rule:nonzero;"/>
        </g>
        <g transform="matrix(16.6667,0,0,16.6667,30.7687,8.0756)">
            <path d="M0.294,-0.388C0.324,-0.388 0.338,-0.412 0.338,-0.435C0.338,-0.459 0.324,-0.482 0.294,-0.482L0.227,-0.482C0.217,-0.482 0.213,-0.483 0.213,-0.499C0.213,-0.499 0.215,-0.537 0.215,-0.564C0.215,-0.577 0.215,-0.625 0.162,-0.625C0.136,-0.625 0.112,-0.61 0.112,-0.58L0.112,-0.577C0.113,-0.566 0.113,-0.554 0.113,-0.542C0.113,-0.519 0.112,-0.499 0.112,-0.499C0.112,-0.485 0.111,-0.482 0.095,-0.482L0.066,-0.482C0.036,-0.482 0.021,-0.459 0.021,-0.436C0.021,-0.412 0.037,-0.388 0.066,-0.388L0.096,-0.388C0.106,-0.388 0.112,-0.387 0.112,-0.374L0.112,-0.359C0.112,-0.315 0.11,-0.215 0.11,-0.157C0.11,-0.116 0.11,0.015 0.258,0.015C0.31,0.015 0.343,-0.002 0.343,-0.038C0.343,-0.06 0.327,-0.082 0.3,-0.082C0.297,-0.082 0.295,-0.081 0.292,-0.081C0.284,-0.08 0.276,-0.079 0.269,-0.079C0.213,-0.079 0.21,-0.111 0.21,-0.189C0.21,-0.255 0.213,-0.34 0.213,-0.377C0.213,-0.383 0.213,-0.388 0.228,-0.388L0.294,-0.388Z" style="fill:rgb(221,221,221);fill-rule:nonzero;"/>
        </g>
        <g transform="matrix(16.6667,0,0,16.6667,36.9353,8.0756)">
            <path d="M0.487,-0.066C0.498,-0.077 0.502,-0.089 0.502,-0.101C0.502,-0.129 0.476,-0.153 0.449,-0.153C0.437,-0.153 0.425,-0.148 0.415,-0.137C0.386,-0.106 0.348,-0.076 0.285,-0.076C0.214,-0.076 0.15,-0.126 0.149,-0.209C0.149,-0.22 0.151,-0.228 0.157,-0.228C0.351,-0.228 0.372,-0.228 0.403,-0.229C0.467,-0.231 0.498,-0.269 0.498,-0.316C0.498,-0.392 0.42,-0.493 0.282,-0.493C0.153,-0.493 0.045,-0.388 0.045,-0.235C0.045,-0.086 0.147,0.017 0.284,0.017C0.385,0.017 0.439,-0.016 0.487,-0.066ZM0.374,-0.311C0.347,-0.31 0.302,-0.31 0.261,-0.31C0.168,-0.31 0.158,-0.31 0.158,-0.319C0.158,-0.336 0.202,-0.406 0.283,-0.406C0.373,-0.406 0.394,-0.347 0.394,-0.333C0.394,-0.321 0.386,-0.312 0.374,-0.311Z" style="fill:rgb(221,221,221);fill-rule:nonzero;"/>
        </g>
    </g>
</svg>
