<?xml version="1.0" encoding="UTF-8" standalone="no"?>
<!DOCTYPE svg PUBLIC "-//W3C//DTD SVG 1.1//EN" "http://www.w3.org/Graphics/SVG/1.1/DTD/svg11.dtd">
<svg width="100%" height="100%" viewBox="0 0 50 20" version="1.1" xmlns="http://www.w3.org/2000/svg" xmlns:xlink="http://www.w3.org/1999/xlink" xml:space="preserve" xmlns:serif="http://www.serif.com/" style="fill-rule:evenodd;clip-rule:evenodd;stroke-linejoin:round;stroke-miterlimit:2;">
    <g transform="matrix(1,0,0,1,-3.31034,8.09107)">
        <g transform="matrix(16.6667,0,0,16.6667,5.70201,8.0756)">
            <path d="M0.202,-0.047L0.202,-0.086C0.202,-0.152 0.199,-0.223 0.199,-0.285C0.199,-0.293 0.2,-0.296 0.205,-0.296C0.207,-0.296 0.209,-0.296 0.212,-0.295C0.238,-0.289 0.262,-0.287 0.285,-0.287C0.31,-0.287 0.333,-0.289 0.357,-0.292C0.497,-0.306 0.574,-0.419 0.574,-0.53C0.574,-0.638 0.501,-0.745 0.343,-0.755C0.328,-0.756 0.308,-0.757 0.287,-0.757C0.091,-0.757 0.09,-0.691 0.09,-0.568C0.09,-0.498 0.092,-0.4 0.092,-0.297C0.092,-0.212 0.091,-0.124 0.087,-0.046L0.087,-0.043C0.087,-0.01 0.116,0.008 0.144,0.008C0.173,0.008 0.201,-0.009 0.202,-0.047ZM0.333,-0.651C0.423,-0.651 0.462,-0.595 0.462,-0.535C0.462,-0.471 0.416,-0.402 0.34,-0.395C0.319,-0.393 0.298,-0.392 0.279,-0.392C0.217,-0.392 0.197,-0.399 0.197,-0.42L0.197,-0.437C0.197,-0.472 0.196,-0.513 0.196,-0.548C0.196,-0.641 0.205,-0.652 0.285,-0.652C0.309,-0.652 0.333,-0.651 0.333,-0.651Z" style="fill:rgb(221,221,221);fill-rule:nonzero;"/>
        </g>
        <g transform="matrix(16.6667,0,0,16.6667,16.0187,8.0756)">
            <path d="M0.453,0.005C0.482,0.005 0.504,-0.027 0.504,-0.055C0.504,-0.069 0.499,-0.082 0.488,-0.09C0.48,-0.096 0.443,-0.099 0.434,-0.179C0.433,-0.185 0.433,-0.193 0.433,-0.202C0.433,-0.232 0.436,-0.27 0.438,-0.285C0.439,-0.299 0.44,-0.311 0.44,-0.324C0.44,-0.439 0.38,-0.493 0.27,-0.493C0.169,-0.493 0.081,-0.44 0.081,-0.392C0.081,-0.366 0.103,-0.346 0.129,-0.346C0.141,-0.346 0.155,-0.351 0.166,-0.364C0.185,-0.385 0.219,-0.406 0.264,-0.406C0.332,-0.406 0.335,-0.355 0.335,-0.343C0.335,-0.322 0.327,-0.31 0.317,-0.309C0.301,-0.308 0.215,-0.289 0.146,-0.265C0.079,-0.242 0.049,-0.191 0.049,-0.14C0.049,-0.063 0.114,0.017 0.224,0.017C0.283,0.017 0.346,-0.004 0.38,-0.043C0.382,-0.045 0.384,-0.046 0.386,-0.046C0.387,-0.046 0.389,-0.045 0.39,-0.043C0.399,-0.028 0.408,-0.017 0.417,-0.01C0.429,-0 0.442,0.005 0.453,0.005ZM0.326,-0.225C0.338,-0.225 0.34,-0.203 0.34,-0.188C0.34,-0.117 0.305,-0.076 0.224,-0.076C0.173,-0.076 0.146,-0.107 0.146,-0.138C0.146,-0.162 0.156,-0.204 0.325,-0.225L0.326,-0.225Z" style="fill:rgb(221,221,221);fill-rule:nonzero;"/>
        </g>
        <g transform="matrix(16.6667,0,0,16.6667,24.7187,8.0756)">
            <path d="M0.182,-0.436C0.182,-0.468 0.156,-0.485 0.131,-0.485C0.105,-0.485 0.079,-0.468 0.078,-0.432C0.077,-0.405 0.077,-0.365 0.077,-0.324C0.077,-0.257 0.078,-0.185 0.079,-0.153C0.083,-0.041 0.166,0.015 0.253,0.015C0.308,0.015 0.365,-0.007 0.404,-0.051C0.406,-0.053 0.407,-0.054 0.408,-0.054C0.409,-0.054 0.41,-0.052 0.411,-0.049C0.422,-0.016 0.436,0.008 0.47,0.008C0.496,0.008 0.522,-0.012 0.522,-0.044C0.522,-0.054 0.52,-0.066 0.513,-0.079C0.495,-0.114 0.486,-0.157 0.486,-0.201C0.486,-0.266 0.488,-0.327 0.491,-0.434L0.491,-0.436C0.491,-0.469 0.464,-0.486 0.438,-0.486C0.412,-0.486 0.386,-0.47 0.387,-0.435C0.389,-0.375 0.39,-0.324 0.39,-0.283C0.39,-0.242 0.389,-0.211 0.388,-0.189C0.385,-0.125 0.321,-0.076 0.265,-0.076C0.223,-0.076 0.186,-0.103 0.182,-0.168C0.181,-0.184 0.18,-0.218 0.18,-0.257C0.18,-0.319 0.181,-0.394 0.182,-0.435L0.182,-0.436Z" style="fill:rgb(221,221,221);fill-rule:nonzero;"/>
        </g>
        <g transform="matrix(16.6667,0,0,16.6667,34.1853,8.0756)">
            <path d="M0.378,-0.131C0.378,-0.18 0.349,-0.231 0.28,-0.268C0.25,-0.284 0.205,-0.304 0.179,-0.317C0.156,-0.328 0.146,-0.346 0.146,-0.361C0.146,-0.383 0.165,-0.402 0.199,-0.402C0.234,-0.402 0.252,-0.388 0.262,-0.378C0.275,-0.364 0.29,-0.358 0.303,-0.358C0.33,-0.358 0.353,-0.381 0.353,-0.408C0.353,-0.447 0.291,-0.492 0.199,-0.492C0.103,-0.492 0.047,-0.426 0.047,-0.358C0.047,-0.309 0.075,-0.26 0.137,-0.233C0.254,-0.18 0.276,-0.161 0.276,-0.129C0.276,-0.106 0.255,-0.078 0.202,-0.078C0.161,-0.078 0.135,-0.095 0.121,-0.113C0.11,-0.128 0.095,-0.134 0.081,-0.134C0.055,-0.134 0.03,-0.113 0.03,-0.086C0.03,-0.053 0.081,0.016 0.203,0.016C0.303,0.016 0.378,-0.053 0.378,-0.131Z" style="fill:rgb(221,221,221);fill-rule:nonzero;"/>
        </g>
        <g transform="matrix(16.6667,0,0,16.6667,41.102,8.0756)">
            <path d="M0.487,-0.066C0.498,-0.077 0.502,-0.089 0.502,-0.101C0.502,-0.129 0.476,-0.153 0.449,-0.153C0.437,-0.153 0.425,-0.148 0.415,-0.137C0.386,-0.106 0.348,-0.076 0.285,-0.076C0.214,-0.076 0.15,-0.126 0.149,-0.209C0.149,-0.22 0.151,-0.228 0.157,-0.228C0.351,-0.228 0.372,-0.228 0.403,-0.229C0.467,-0.231 0.498,-0.269 0.498,-0.316C0.498,-0.392 0.42,-0.493 0.282,-0.493C0.153,-0.493 0.045,-0.388 0.045,-0.235C0.045,-0.086 0.147,0.017 0.284,0.017C0.385,0.017 0.439,-0.016 0.487,-0.066ZM0.374,-0.311C0.347,-0.31 0.302,-0.31 0.261,-0.31C0.168,-0.31 0.158,-0.31 0.158,-0.319C0.158,-0.336 0.202,-0.406 0.283,-0.406C0.373,-0.406 0.394,-0.347 0.394,-0.333C0.394,-0.321 0.386,-0.312 0.374,-0.311Z" style="fill:rgb(221,221,221);fill-rule:nonzero;"/>
        </g>
    </g>
</svg>
