<?xml version="1.0" encoding="UTF-8" standalone="no"?>
<!DOCTYPE svg PUBLIC "-//W3C//DTD SVG 1.1//EN" "http://www.w3.org/Graphics/SVG/1.1/DTD/svg11.dtd">
<svg width="100%" height="100%" viewBox="0 0 50 20" version="1.1" xmlns="http://www.w3.org/2000/svg" xmlns:xlink="http://www.w3.org/1999/xlink" xml:space="preserve" xmlns:serif="http://www.serif.com/" style="fill-rule:evenodd;clip-rule:evenodd;stroke-linejoin:round;stroke-miterlimit:2;">
    <g transform="matrix(1,0,0,1,2.72299,7.5744)">
        <g transform="matrix(16.6667,0,0,16.6667,5.70201,8.0756)">
            <path d="M0.202,-0.047L0.202,-0.086C0.202,-0.152 0.199,-0.223 0.199,-0.285C0.199,-0.293 0.2,-0.296 0.205,-0.296C0.207,-0.296 0.209,-0.296 0.212,-0.295C0.238,-0.289 0.262,-0.287 0.285,-0.287C0.31,-0.287 0.333,-0.289 0.357,-0.292C0.497,-0.306 0.574,-0.419 0.574,-0.53C0.574,-0.638 0.501,-0.745 0.343,-0.755C0.328,-0.756 0.308,-0.757 0.287,-0.757C0.091,-0.757 0.09,-0.691 0.09,-0.568C0.09,-0.498 0.092,-0.4 0.092,-0.297C0.092,-0.212 0.091,-0.124 0.087,-0.046L0.087,-0.043C0.087,-0.01 0.116,0.008 0.144,0.008C0.173,0.008 0.201,-0.009 0.202,-0.047ZM0.333,-0.651C0.423,-0.651 0.462,-0.595 0.462,-0.535C0.462,-0.471 0.416,-0.402 0.34,-0.395C0.319,-0.393 0.298,-0.392 0.279,-0.392C0.217,-0.392 0.197,-0.399 0.197,-0.42L0.197,-0.437C0.197,-0.472 0.196,-0.513 0.196,-0.548C0.196,-0.641 0.205,-0.652 0.285,-0.652C0.309,-0.652 0.333,-0.651 0.333,-0.651Z" style="fill:rgb(221,221,221);fill-rule:nonzero;"/>
        </g>
        <g transform="matrix(16.6667,0,0,16.6667,16.0187,8.0756)">
            <path d="M0.086,-0.045C0.086,-0.01 0.113,0.008 0.141,0.008C0.168,0.008 0.195,-0.009 0.195,-0.044L0.195,-0.046C0.193,-0.122 0.192,-0.229 0.192,-0.335C0.192,-0.491 0.194,-0.645 0.195,-0.694L0.195,-0.696C0.195,-0.731 0.168,-0.749 0.141,-0.749C0.112,-0.749 0.085,-0.729 0.086,-0.693C0.088,-0.653 0.088,-0.526 0.088,-0.392C0.088,-0.258 0.088,-0.116 0.086,-0.046L0.086,-0.045Z" style="fill:rgb(221,221,221);fill-rule:nonzero;"/>
        </g>
        <g transform="matrix(16.6667,0,0,16.6667,20.702,8.0756)">
            <path d="M0.453,0.005C0.482,0.005 0.504,-0.027 0.504,-0.055C0.504,-0.069 0.499,-0.082 0.488,-0.09C0.48,-0.096 0.443,-0.099 0.434,-0.179C0.433,-0.185 0.433,-0.193 0.433,-0.202C0.433,-0.232 0.436,-0.27 0.438,-0.285C0.439,-0.299 0.44,-0.311 0.44,-0.324C0.44,-0.439 0.38,-0.493 0.27,-0.493C0.169,-0.493 0.081,-0.44 0.081,-0.392C0.081,-0.366 0.103,-0.346 0.129,-0.346C0.141,-0.346 0.155,-0.351 0.166,-0.364C0.185,-0.385 0.219,-0.406 0.264,-0.406C0.332,-0.406 0.335,-0.355 0.335,-0.343C0.335,-0.322 0.327,-0.31 0.317,-0.309C0.301,-0.308 0.215,-0.289 0.146,-0.265C0.079,-0.242 0.049,-0.191 0.049,-0.14C0.049,-0.063 0.114,0.017 0.224,0.017C0.283,0.017 0.346,-0.004 0.38,-0.043C0.382,-0.045 0.384,-0.046 0.386,-0.046C0.387,-0.046 0.389,-0.045 0.39,-0.043C0.399,-0.028 0.408,-0.017 0.417,-0.01C0.429,-0 0.442,0.005 0.453,0.005ZM0.326,-0.225C0.338,-0.225 0.34,-0.203 0.34,-0.188C0.34,-0.117 0.305,-0.076 0.224,-0.076C0.173,-0.076 0.146,-0.107 0.146,-0.138C0.146,-0.162 0.156,-0.204 0.325,-0.225L0.326,-0.225Z" style="fill:rgb(221,221,221);fill-rule:nonzero;"/>
        </g>
        <g transform="matrix(16.6667,0,0,16.6667,29.402,8.0756)">
            <path d="M0.282,0.051C0.341,-0.091 0.427,-0.295 0.475,-0.412C0.479,-0.421 0.48,-0.429 0.48,-0.436C0.48,-0.467 0.453,-0.485 0.426,-0.485C0.406,-0.485 0.385,-0.475 0.377,-0.451C0.333,-0.322 0.26,-0.136 0.253,-0.136C0.247,-0.136 0.221,-0.2 0.128,-0.453C0.12,-0.475 0.101,-0.485 0.083,-0.485C0.057,-0.485 0.03,-0.465 0.03,-0.434C0.03,-0.427 0.031,-0.42 0.034,-0.412C0.058,-0.346 0.159,-0.106 0.189,-0.031C0.193,-0.022 0.194,-0.013 0.194,-0.005C0.194,0.002 0.193,0.007 0.192,0.011C0.15,0.108 0.119,0.154 0.053,0.157C0.021,0.158 0.008,0.183 0.008,0.208C0.008,0.233 0.021,0.261 0.053,0.261C0.169,0.26 0.226,0.185 0.282,0.051Z" style="fill:rgb(221,221,221);fill-rule:nonzero;"/>
        </g>
    </g>
</svg>
