<?xml version="1.0" encoding="UTF-8" standalone="no"?>
<!DOCTYPE svg PUBLIC "-//W3C//DTD SVG 1.1//EN" "http://www.w3.org/Graphics/SVG/1.1/DTD/svg11.dtd">
<svg width="100%" height="100%" viewBox="0 0 60 20" version="1.1" xmlns="http://www.w3.org/2000/svg" xmlns:xlink="http://www.w3.org/1999/xlink" xml:space="preserve" xmlns:serif="http://www.serif.com/" style="fill-rule:evenodd;clip-rule:evenodd;stroke-linejoin:round;stroke-miterlimit:2;">
    <g transform="matrix(1,0,0,1,-4.51034,8.0494)">
        <g transform="matrix(16.6667,0,0,16.6667,5.70201,8.0756)">
            <path d="M0.418,-0.062C0.456,-0.184 0.571,-0.502 0.63,-0.676C0.632,-0.683 0.633,-0.689 0.633,-0.695C0.633,-0.729 0.601,-0.752 0.569,-0.752C0.546,-0.752 0.523,-0.74 0.514,-0.712C0.47,-0.581 0.368,-0.249 0.34,-0.165C0.335,-0.149 0.33,-0.143 0.326,-0.143C0.321,-0.143 0.317,-0.15 0.313,-0.162C0.271,-0.286 0.166,-0.633 0.149,-0.705C0.141,-0.737 0.115,-0.752 0.09,-0.752C0.06,-0.752 0.03,-0.731 0.03,-0.692C0.03,-0.646 0.189,-0.19 0.239,-0.063C0.258,-0.016 0.296,0.01 0.333,0.01C0.368,0.01 0.402,-0.013 0.418,-0.062Z" style="fill:rgb(221,221,221);fill-rule:nonzero;"/>
        </g>
        <g transform="matrix(16.6667,0,0,16.6667,16.752,8.0756)">
            <path d="M0.296,0.015C0.439,0.015 0.547,-0.087 0.547,-0.238C0.547,-0.384 0.439,-0.491 0.296,-0.491C0.153,-0.491 0.044,-0.384 0.044,-0.238C0.044,-0.087 0.153,0.015 0.296,0.015ZM0.296,-0.079C0.213,-0.079 0.145,-0.14 0.145,-0.238C0.145,-0.337 0.214,-0.399 0.296,-0.399C0.378,-0.399 0.446,-0.337 0.446,-0.238C0.446,-0.14 0.379,-0.079 0.296,-0.079Z" style="fill:rgb(221,221,221);fill-rule:nonzero;"/>
        </g>
        <g transform="matrix(16.6667,0,0,16.6667,26.602,8.0756)">
            <path d="M0.086,-0.045C0.086,-0.01 0.113,0.008 0.141,0.008C0.168,0.008 0.195,-0.009 0.195,-0.044L0.195,-0.046C0.193,-0.122 0.192,-0.229 0.192,-0.335C0.192,-0.491 0.194,-0.645 0.195,-0.694L0.195,-0.696C0.195,-0.731 0.168,-0.749 0.141,-0.749C0.112,-0.749 0.085,-0.729 0.086,-0.693C0.088,-0.653 0.088,-0.526 0.088,-0.392C0.088,-0.258 0.088,-0.116 0.086,-0.046L0.086,-0.045Z" style="fill:rgb(221,221,221);fill-rule:nonzero;"/>
        </g>
        <g transform="matrix(16.6667,0,0,16.6667,31.2853,8.0756)">
            <path d="M0.182,-0.436C0.182,-0.468 0.156,-0.485 0.131,-0.485C0.105,-0.485 0.079,-0.468 0.078,-0.432C0.077,-0.405 0.077,-0.365 0.077,-0.324C0.077,-0.257 0.078,-0.185 0.079,-0.153C0.083,-0.041 0.166,0.015 0.253,0.015C0.308,0.015 0.365,-0.007 0.404,-0.051C0.406,-0.053 0.407,-0.054 0.408,-0.054C0.409,-0.054 0.41,-0.052 0.411,-0.049C0.422,-0.016 0.436,0.008 0.47,0.008C0.496,0.008 0.522,-0.012 0.522,-0.044C0.522,-0.054 0.52,-0.066 0.513,-0.079C0.495,-0.114 0.486,-0.157 0.486,-0.201C0.486,-0.266 0.488,-0.327 0.491,-0.434L0.491,-0.436C0.491,-0.469 0.464,-0.486 0.438,-0.486C0.412,-0.486 0.386,-0.47 0.387,-0.435C0.389,-0.375 0.39,-0.324 0.39,-0.283C0.39,-0.242 0.389,-0.211 0.388,-0.189C0.385,-0.125 0.321,-0.076 0.265,-0.076C0.223,-0.076 0.186,-0.103 0.182,-0.168C0.181,-0.184 0.18,-0.218 0.18,-0.257C0.18,-0.319 0.181,-0.394 0.182,-0.435L0.182,-0.436Z" style="fill:rgb(221,221,221);fill-rule:nonzero;"/>
        </g>
        <g transform="matrix(16.6667,0,0,16.6667,40.752,8.0756)">
            <path d="M0.647,-0.039C0.647,-0.005 0.672,0.014 0.696,0.014C0.721,0.014 0.745,-0.004 0.746,-0.042C0.747,-0.064 0.747,-0.094 0.747,-0.127C0.747,-0.2 0.746,-0.286 0.745,-0.321C0.742,-0.43 0.669,-0.49 0.59,-0.49C0.535,-0.49 0.478,-0.461 0.439,-0.4C0.413,-0.461 0.359,-0.491 0.304,-0.491C0.26,-0.491 0.216,-0.473 0.184,-0.437C0.183,-0.436 0.181,-0.434 0.18,-0.434C0.18,-0.434 0.179,-0.436 0.179,-0.439C0.179,-0.473 0.152,-0.489 0.129,-0.489C0.106,-0.489 0.079,-0.474 0.079,-0.441L0.079,-0.439C0.08,-0.381 0.081,-0.333 0.081,-0.283C0.081,-0.218 0.08,-0.148 0.077,-0.041L0.077,-0.039C0.077,-0.004 0.103,0.014 0.128,0.014C0.15,0.014 0.178,0.001 0.177,-0.04C0.175,-0.118 0.174,-0.176 0.174,-0.219C0.174,-0.242 0.174,-0.261 0.175,-0.277C0.178,-0.346 0.24,-0.397 0.292,-0.397C0.327,-0.397 0.358,-0.373 0.362,-0.313C0.363,-0.296 0.363,-0.257 0.363,-0.212C0.363,-0.151 0.363,-0.079 0.362,-0.04L0.362,-0.039C0.362,-0.004 0.386,0.013 0.41,0.013C0.435,0.013 0.46,-0.005 0.46,-0.038L0.46,-0.04C0.458,-0.118 0.457,-0.176 0.457,-0.219C0.457,-0.242 0.457,-0.261 0.458,-0.277C0.461,-0.345 0.524,-0.396 0.577,-0.396C0.613,-0.396 0.644,-0.372 0.647,-0.313C0.648,-0.296 0.648,-0.257 0.648,-0.212C0.648,-0.151 0.648,-0.079 0.647,-0.04L0.647,-0.039Z" style="fill:rgb(221,221,221);fill-rule:nonzero;"/>
        </g>
        <g transform="matrix(16.6667,0,0,16.6667,54.452,8.0756)">
            <path d="M0.487,-0.066C0.498,-0.077 0.502,-0.089 0.502,-0.101C0.502,-0.129 0.476,-0.153 0.449,-0.153C0.437,-0.153 0.425,-0.148 0.415,-0.137C0.386,-0.106 0.348,-0.076 0.285,-0.076C0.214,-0.076 0.15,-0.126 0.149,-0.209C0.149,-0.22 0.151,-0.228 0.157,-0.228C0.351,-0.228 0.372,-0.228 0.403,-0.229C0.467,-0.231 0.498,-0.269 0.498,-0.316C0.498,-0.392 0.42,-0.493 0.282,-0.493C0.153,-0.493 0.045,-0.388 0.045,-0.235C0.045,-0.086 0.147,0.017 0.284,0.017C0.385,0.017 0.439,-0.016 0.487,-0.066ZM0.374,-0.311C0.347,-0.31 0.302,-0.31 0.261,-0.31C0.168,-0.31 0.158,-0.31 0.158,-0.319C0.158,-0.336 0.202,-0.406 0.283,-0.406C0.373,-0.406 0.394,-0.347 0.394,-0.333C0.394,-0.321 0.386,-0.312 0.374,-0.311Z" style="fill:rgb(221,221,221);fill-rule:nonzero;"/>
        </g>
    </g>
</svg>
